<svg version="1.1" id="Layer_1" xmlns="http://www.w3.org/2000/svg" xmlns:xlink="http://www.w3.org/1999/xlink" x="0px" y="0px"
	 width="100%" viewBox="0 0 1525 515" enable-background="new 0 0 1525 515" xml:space="preserve">
<path fill="#FFFFFF" opacity="1.000000" stroke="none" 
	d="
M970.000000,516.000000 
	C646.706177,516.000000 323.912384,516.000000 1.059286,516.000000 
	C1.059286,344.393890 1.059286,172.787750 1.059286,1.090811 
	C509.210571,1.090811 1017.421143,1.090811 1525.815918,1.090811 
	C1525.815918,172.666504 1525.815918,344.333221 1525.815918,516.000000 
	C1340.787598,516.000000 1155.643799,516.000000 970.000000,516.000000 
M1064.186035,360.374451 
	C1066.565674,356.595917 1069.061768,352.883301 1071.258423,349.001312 
	C1071.978638,347.728638 1072.565186,345.776489 1072.106567,344.547913 
	C1070.383179,339.930695 1068.203125,335.483887 1066.050293,330.244904 
	C1061.666748,320.160065 1057.283081,310.075256 1052.843872,299.276489 
	C1048.888062,290.852020 1044.932373,282.427582 1040.899658,273.286346 
	C1035.266602,261.857361 1029.633423,250.428360 1023.910522,238.296295 
	C1022.847107,236.282135 1021.811646,234.252563 1020.715332,232.256454 
	C1016.214661,224.061707 1011.695374,215.877121 1006.816650,207.118958 
	C1002.085632,199.041641 997.354614,190.964310 992.325745,182.213760 
	C991.379883,180.679596 990.506531,179.094803 989.476379,177.619522 
	C982.543335,167.690491 975.577087,157.784653 968.309509,147.210709 
	C967.119385,145.689636 966.017822,144.088348 964.724609,142.660645 
	C956.878418,133.998444 948.988647,125.375771 940.797913,116.149986 
	C939.193542,114.772247 937.550171,113.437141 935.990662,112.010406 
	C913.093811,91.062218 887.064880,78.556808 855.125488,82.048859 
	C843.552612,83.314156 832.547546,86.591728 821.473572,91.496361 
	C827.240784,92.928070 832.437317,94.036804 837.526611,95.514885 
	C854.000122,100.299278 867.643677,109.995766 881.032104,121.201187 
	C889.711548,130.127136 898.390991,139.053101 907.266113,148.618835 
	C915.841309,160.080429 924.416443,171.542038 933.149475,183.675385 
	C938.492432,192.110046 943.835327,200.544708 949.316956,209.644608 
	C955.471069,220.280716 961.625122,230.916840 967.819946,242.247391 
	C972.957764,252.486816 978.095581,262.726257 983.364807,273.642792 
	C987.591614,282.424194 991.818481,291.205597 996.086853,300.712067 
	C1000.664978,310.836731 1005.243103,320.961395 1009.912170,331.828857 
	C1013.891357,341.244873 1017.870605,350.660889 1021.925903,360.828003 
	C1026.565918,372.584808 1031.205933,384.341614 1035.845947,396.098419 
	C1036.567505,396.258728 1037.289062,396.419006 1038.010620,396.579315 
	C1046.612061,384.706512 1055.213623,372.833740 1064.186035,360.374451 
M946.067322,230.221207 
	C940.727356,221.122116 935.387329,212.023010 929.863586,202.261002 
	C928.483215,200.057739 927.177307,197.803391 925.709167,195.660294 
	C920.037659,187.381973 914.314514,179.139084 908.314880,170.213333 
	C901.009399,161.440384 893.703979,152.667435 886.084900,143.275497 
	C883.979614,141.177368 881.882751,139.070709 879.767761,136.982407 
	C862.068298,119.506157 842.042358,106.327103 816.632019,103.461617 
	C800.610352,101.654877 785.437866,105.101784 770.779175,111.621811 
	C785.219727,110.530479 797.229980,116.350677 807.980164,124.878296 
	C815.384094,130.751434 822.020874,137.591660 829.228699,144.631027 
	C836.226868,153.412354 843.225098,162.193680 850.395569,171.615463 
	C857.496582,182.453003 864.597534,193.290543 871.891907,204.813812 
	C876.807434,213.256012 881.722961,221.698212 886.838928,230.835800 
	C891.876038,240.229202 896.913147,249.622589 902.033569,259.735016 
	C907.623474,270.852539 913.213379,281.970062 918.940918,293.807587 
	C923.021118,302.527618 927.101257,311.247681 931.315552,320.660767 
	C935.896057,330.770264 940.476624,340.879761 945.097229,351.713318 
	C949.776733,362.465576 954.456299,373.217804 959.304565,384.665131 
	C963.854736,395.366150 968.311279,406.109222 973.071350,416.716034 
	C973.679260,418.070557 975.815735,419.426605 977.337769,419.541687 
	C980.606140,419.788666 983.940552,419.280273 987.239380,418.985657 
	C1001.454163,417.716125 1014.263062,412.797394 1026.119019,404.124084 
	C1023.089783,397.273438 1020.148621,390.621887 1017.094604,383.229034 
	C1015.566772,379.454865 1014.087280,375.660217 1012.500427,371.911011 
	C1009.683716,365.256134 1006.801941,358.628845 1003.880737,351.270599 
	C999.238464,340.844543 994.596191,330.418457 989.886963,319.284332 
	C988.663025,316.760742 987.409485,314.251038 986.220947,311.710876 
	C983.142822,305.132263 980.093384,298.540222 976.941162,291.239685 
	C976.260315,289.758911 975.618103,288.258942 974.892456,286.800476 
	C970.278015,277.525940 965.645203,268.260559 960.924622,258.287018 
	C956.036987,249.164230 951.149292,240.041458 946.067322,230.221207 
M1212.919434,379.708344 
	C1223.045410,362.849152 1233.171387,345.989960 1243.826416,328.720795 
	C1254.304443,310.668243 1264.782471,292.615723 1275.797363,274.095978 
	C1286.982178,256.454620 1298.166992,238.813248 1309.877930,220.777435 
	C1326.001587,200.551254 1342.125366,180.325089 1358.836182,159.814545 
	C1371.183228,148.754669 1383.298950,137.420013 1395.977539,126.754219 
	C1402.048828,121.646713 1409.186035,117.806328 1416.443604,113.188606 
	C1420.395264,111.060837 1424.334106,108.909096 1428.300659,106.809341 
	C1448.336304,96.202766 1469.764038,89.825836 1492.844849,85.985779 
	C1497.174316,85.475731 1501.503784,84.965691 1506.073242,84.427376 
	C1505.583496,83.822067 1505.435547,83.449448 1505.182373,83.353210 
	C1476.805908,72.568214 1447.694214,65.549782 1417.082153,67.276756 
	C1400.089722,68.235367 1383.499878,71.433456 1367.207520,78.902756 
	C1349.951294,86.139748 1334.486084,96.143936 1320.214844,109.191231 
	C1304.550049,123.093597 1290.890503,138.759155 1278.475464,156.377777 
	C1265.943970,176.511017 1253.412354,196.644272 1240.285522,217.154480 
	C1239.262329,219.041718 1238.221313,220.919617 1237.218628,222.817673 
	C1228.743530,238.857117 1220.275635,254.900253 1211.222778,271.307709 
	C1210.359497,273.102692 1209.550293,274.926117 1208.624634,276.688263 
	C1200.043335,293.021667 1191.442017,309.344574 1182.296631,326.116913 
	C1171.812866,343.394165 1161.329224,360.671417 1150.286987,378.302887 
	C1138.038940,392.812866 1125.790894,407.322845 1112.938599,422.060242 
	C1092.965210,440.138184 1070.196899,452.533112 1042.927734,456.086517 
	C1046.433472,458.375458 1049.783325,460.161591 1053.234741,461.723511 
	C1081.078125,474.323853 1108.972046,476.511536 1136.710571,461.555511 
	C1153.922729,452.275055 1168.014893,439.254547 1180.776611,423.771332 
	C1191.324463,409.223450 1201.872192,394.675568 1212.919434,379.708344 
M1152.261108,223.361145 
	C1144.605835,239.243896 1136.950562,255.126633 1128.848755,271.583435 
	C1119.102417,291.006226 1109.356079,310.429016 1099.117798,330.297272 
	C1086.524414,353.279816 1072.621460,375.372803 1054.557007,395.371704 
	C1035.715454,415.557465 1013.793579,429.872131 985.221069,431.441772 
	C985.397949,432.000061 985.402283,432.464264 985.598328,432.568787 
	C1005.739136,443.310059 1026.933472,448.325104 1049.636108,443.340454 
	C1078.433350,437.017731 1099.955444,419.343231 1119.588379,397.686127 
	C1137.467041,377.653687 1152.237305,355.453064 1165.856812,331.683624 
	C1175.637695,312.583405 1185.418457,293.483215 1195.735107,273.898560 
	C1204.089966,257.595978 1212.444824,241.293411 1221.238647,224.441635 
	C1230.129639,208.951096 1239.020508,193.460541 1248.442383,177.547516 
	C1251.527588,172.839310 1254.391113,167.966446 1257.740234,163.454132 
	C1267.381226,150.464737 1277.218384,137.620941 1287.610352,124.577408 
	C1299.108887,113.834625 1310.099243,102.468437 1322.268677,92.548752 
	C1331.792358,84.785851 1342.777222,78.815880 1353.864990,72.033340 
	C1379.050781,60.719837 1405.287720,53.251774 1432.907837,50.730392 
	C1398.790771,39.675331 1364.299683,34.074646 1328.688477,40.994717 
	C1305.859741,45.430889 1284.856567,54.138901 1265.465332,68.252441 
	C1245.368896,82.498169 1228.440308,99.920670 1213.280273,120.067154 
	C1201.275269,138.711227 1189.270386,157.355301 1176.828613,176.562515 
	C1168.815308,192.017059 1160.801880,207.471588 1152.261108,223.361145 
M70.954185,295.392578 
	C56.323189,349.788177 41.692192,404.183777 26.990065,458.843811 
	C52.121910,458.843811 76.904091,458.843811 101.888199,458.843811 
	C113.705605,415.022552 125.506645,371.262024 137.381058,327.229370 
	C191.679428,327.229370 245.625259,327.229370 299.768127,327.229370 
	C305.761627,304.524384 311.671478,282.136292 317.576385,259.766876 
	C316.484650,259.452393 316.166809,259.280670 315.848877,259.280579 
	C238.527908,259.255432 161.206924,259.257660 83.886040,259.167755 
	C81.041473,259.164459 80.301125,260.390625 79.674408,262.815430 
	C76.929512,273.435516 73.974648,284.001373 70.954185,295.392578 
M123.499893,227.342773 
	C135.659622,227.342606 147.821167,227.227554 159.977798,227.421524 
	C163.092224,227.471237 164.294235,226.406952 165.028137,223.496597 
	C167.709091,212.864899 170.826523,202.340927 173.380157,191.680695 
	C174.290863,187.878922 175.869965,186.843781 179.742752,186.853333 
	C237.542175,186.996094 295.342041,186.952011 353.141815,186.952011 
	C354.966217,186.952011 356.790619,186.952011 359.039581,186.952011 
	C365.168793,164.369904 371.272461,141.881912 377.451111,119.117592 
	C290.651672,119.117592 204.576645,119.117592 118.291512,119.117592 
	C108.634972,155.083099 99.014191,190.915466 89.233635,227.342865 
	C100.898590,227.342865 111.699234,227.342865 123.499893,227.342773 
M704.501343,321.083649 
	C698.734131,321.083649 692.966919,321.083649 687.337891,321.083649 
	C687.337891,368.167389 687.337891,414.549774 687.337891,461.036804 
	C731.564758,461.036804 775.388000,461.325500 819.204102,460.892151 
	C836.295349,460.723175 849.812256,447.381653 849.889343,432.030365 
	C850.026550,404.703247 850.192688,377.370056 849.690491,350.051514 
	C849.595947,344.909302 847.423462,339.158752 844.502380,334.845123 
	C837.731323,324.846039 827.204651,321.160004 815.478271,321.125641 
	C778.819336,321.018219 742.159912,321.084625 704.501343,321.083649 
M487.775055,342.411011 
	C487.775055,335.460175 487.775055,328.509308 487.775055,321.378326 
	C437.292053,321.378326 387.396851,321.378326 337.417725,321.378326 
	C337.417725,368.063293 337.417725,414.449493 337.417725,460.700043 
	C387.669830,460.700043 437.562927,460.700043 487.529114,460.700043 
	C487.529114,450.691650 487.529114,441.089294 487.529114,430.863220 
	C449.240265,430.863220 411.190918,430.863220 373.187073,430.863220 
	C373.187073,422.344666 373.187073,414.459229 373.187073,406.056091 
	C403.996490,406.056091 434.397766,406.056091 464.826416,406.056091 
	C464.826416,395.791443 464.826416,386.062744 464.826416,375.900635 
	C434.071594,375.900635 403.647522,375.900635 373.196289,375.900635 
	C373.196289,367.581390 373.196289,359.708557 373.196289,351.327026 
	C411.542999,351.327026 449.470551,351.327026 487.774872,351.327026 
	C487.774872,348.330811 487.774872,345.853912 487.775055,342.411011 
M664.456177,169.082001 
	C667.840820,176.484024 671.085754,183.954895 674.683716,191.251755 
	C675.990845,193.902679 675.621765,195.612747 673.869507,197.865189 
	C660.480896,215.075424 647.199341,232.369476 633.972168,249.704346 
	C631.561340,252.863892 629.146545,256.134827 627.437500,259.692474 
	C623.450928,267.991241 626.945068,273.502930 636.085571,273.705597 
	C642.078613,273.838501 648.079895,273.613342 654.072205,273.761414 
	C661.672791,273.949219 667.478516,271.016998 671.941101,264.806946 
	C680.195374,253.320206 688.676941,241.996658 697.078735,230.616135 
	C698.085144,229.252853 699.184204,227.957962 700.553894,226.237457 
	C706.295837,239.655670 711.765991,252.306885 717.117615,265.008057 
	C719.326782,270.251129 722.938843,273.523102 728.752869,273.645935 
	C736.077637,273.800751 743.423523,273.998199 750.731873,273.623718 
	C759.792603,273.159515 764.327148,266.703156 762.203979,257.771515 
	C761.556641,255.048294 760.567993,252.366928 759.419006,249.808670 
	C752.409546,234.202454 745.427979,218.581253 738.151245,203.099365 
	C736.423950,199.424423 736.914062,196.994202 739.364014,193.877731 
	C752.633545,176.998093 765.707397,159.963501 778.726440,142.889175 
	C781.026550,139.872620 783.270691,136.618271 784.629639,133.119827 
	C787.470581,125.806641 783.981384,120.970497 776.118225,120.806160 
	C769.791870,120.673950 763.450745,120.995972 757.134094,120.714661 
	C749.398804,120.370171 743.768555,123.557968 739.321960,129.708511 
	C731.229187,140.902435 722.946777,151.959381 714.722229,163.057678 
	C713.887512,164.184006 712.907043,165.202377 711.701660,166.613312 
	C706.102356,153.704346 700.726013,141.401962 695.434326,129.063248 
	C693.364380,124.236580 690.180786,120.931206 684.642700,120.861725 
	C676.816895,120.763550 668.981812,120.632851 661.163940,120.901306 
	C654.075562,121.144722 649.748962,125.822327 650.100464,132.937866 
	C650.260010,136.168625 651.174500,139.513641 652.447144,142.509216 
	C656.148010,151.220703 660.202820,159.781845 664.456177,169.082001 
M520.942810,162.329239 
	C515.242981,194.593506 509.513794,226.852615 503.860840,259.125092 
	C502.105347,269.146942 505.854034,273.638824 515.936584,273.718689 
	C525.764709,273.796570 535.593994,273.736511 545.422729,273.736481 
	C564.580505,273.736450 583.738342,273.767883 602.895996,273.720551 
	C610.826172,273.700958 613.738403,271.228760 615.148010,263.584778 
	C615.962402,259.168518 616.678345,254.734055 617.503784,250.319962 
	C619.080139,241.890121 617.298218,239.605377 608.786987,239.579727 
	C592.794617,239.531525 576.801880,239.565536 560.809326,239.565384 
	C558.199524,239.565369 555.589661,239.565399 552.302429,239.565399 
	C553.911011,230.479172 555.394226,222.100586 556.896545,213.614288 
	C563.924988,213.614288 570.242004,213.680603 576.557190,213.598160 
	C585.208923,213.485214 593.913147,213.798523 602.495850,212.939377 
	C612.257690,211.962173 618.414062,202.985062 617.726318,192.225876 
	C617.163208,183.417038 611.483704,179.019897 600.607666,179.008850 
	C588.136780,178.996185 575.665955,179.005920 562.762573,179.005920 
	C564.255493,170.771790 565.667542,162.983444 567.139160,154.866409 
	C569.020447,154.866409 570.661865,154.866440 572.303284,154.866425 
	C589.461975,154.866196 606.620728,154.889114 623.779358,154.855545 
	C631.828369,154.839798 634.732910,152.245972 636.062256,144.194992 
	C636.848083,139.436020 637.699280,134.687790 638.530457,129.936371 
	C639.664124,123.455734 637.624634,120.809891 631.025513,120.796982 
	C601.206177,120.738625 571.386475,120.722321 541.567200,120.805260 
	C532.965088,120.829178 527.534180,125.542351 525.970276,133.965576 
	C524.270203,143.122650 522.674255,152.299057 520.942810,162.329239 
M421.499908,273.734314 
	C439.329590,273.733276 457.159454,273.772766 474.988922,273.710541 
	C481.801666,273.686768 485.115448,271.464050 486.434082,265.614899 
	C487.859161,259.293365 488.973389,252.886200 489.875977,246.467560 
	C490.551544,241.663452 488.331024,239.166061 483.475830,239.005859 
	C477.816284,238.819077 472.146362,238.942215 466.480927,238.940506 
	C454.344116,238.936844 442.207336,238.939377 429.917633,238.939377 
	C430.040253,237.339096 430.031342,236.167068 430.231415,235.031876 
	C436.324005,200.463654 442.438629,165.899338 448.545654,131.333664 
	C449.789612,124.292854 447.045197,120.890350 439.820679,120.797142 
	C431.823669,120.693962 423.823853,120.722435 415.826019,120.787155 
	C407.875000,120.851501 404.238159,123.834824 402.843628,131.678101 
	C395.272095,174.263412 387.744781,216.856628 380.245361,259.454712 
	C378.633759,268.608765 382.702606,273.567139 392.006134,273.700653 
	C401.502258,273.836945 411.001831,273.733032 421.499908,273.734314 
M510.194641,447.490051 
	C510.194641,451.924866 510.194641,456.359650 510.194641,460.695862 
	C564.932739,460.695862 618.967163,460.695862 672.961060,460.695862 
	C672.961060,450.675629 672.961060,441.063110 672.961060,430.785950 
	C630.391541,430.785950 588.053711,430.785950 545.224304,430.785950 
	C545.224304,393.892944 545.224304,357.665100 545.224304,321.317017 
	C533.340698,321.317017 521.959656,321.317017 510.194763,321.317017 
	C510.194763,363.267395 510.194763,404.880707 510.194641,447.490051 
z"/>
<path fill="#333434" opacity="1.000000" stroke="none" 
	d="
M71.025070,294.989746 
	C73.974648,284.001373 76.929512,273.435516 79.674408,262.815430 
	C80.301125,260.390625 81.041473,259.164459 83.886040,259.167755 
	C161.206924,259.257660 238.527908,259.255432 315.848877,259.280579 
	C316.166809,259.280670 316.484650,259.452393 317.576385,259.766876 
	C311.671478,282.136292 305.761627,304.524384 299.768127,327.229370 
	C245.625259,327.229370 191.679428,327.229370 137.381058,327.229370 
	C125.506645,371.262024 113.705605,415.022552 101.888199,458.843811 
	C76.904091,458.843811 52.121910,458.843811 26.990065,458.843811 
	C41.692192,404.183777 56.323189,349.788177 71.025070,294.989746 
z"/>
<path fill="#323333" opacity="1.000000" stroke="none" 
	d="
M122.999886,227.342819 
	C111.699234,227.342865 100.898590,227.342865 89.233635,227.342865 
	C99.014191,190.915466 108.634972,155.083099 118.291512,119.117592 
	C204.576645,119.117592 290.651672,119.117592 377.451111,119.117592 
	C371.272461,141.881912 365.168793,164.369904 359.039581,186.952011 
	C356.790619,186.952011 354.966217,186.952011 353.141815,186.952011 
	C295.342041,186.952011 237.542175,186.996094 179.742752,186.853333 
	C175.869965,186.843781 174.290863,187.878922 173.380157,191.680695 
	C170.826523,202.340927 167.709091,212.864899 165.028137,223.496597 
	C164.294235,226.406952 163.092224,227.471237 159.977798,227.421524 
	C147.821167,227.227554 135.659622,227.342606 122.999886,227.342819 
z"/>
<path fill="#13A2C9" opacity="1.000000" stroke="none" 
	d="
M705.000977,321.083679 
	C742.159912,321.084625 778.819336,321.018219 815.478271,321.125641 
	C827.204651,321.160004 837.731323,324.846039 844.502380,334.845123 
	C847.423462,339.158752 849.595947,344.909302 849.690491,350.051514 
	C850.192688,377.370056 850.026550,404.703247 849.889343,432.030365 
	C849.812256,447.381653 836.295349,460.723175 819.204102,460.892151 
	C775.388000,461.325500 731.564758,461.036804 687.337891,461.036804 
	C687.337891,414.549774 687.337891,368.167389 687.337891,321.083649 
	C692.966919,321.083649 698.734131,321.083649 705.000977,321.083679 
M733.521240,430.904938 
	C760.286926,430.904938 787.052673,430.904938 813.977356,430.904938 
	C813.977356,404.170776 813.977356,378.076324 813.977356,351.694885 
	C783.324951,351.694885 752.915039,351.694885 722.308472,351.694885 
	C722.308472,378.118744 722.308472,404.324280 722.308472,430.904907 
	C725.927002,430.904907 729.228271,430.904907 733.521240,430.904938 
z"/>
<path fill="#13A2C9" opacity="1.000000" stroke="none" 
	d="
M487.774963,342.894012 
	C487.774872,345.853912 487.774872,348.330811 487.774872,351.327026 
	C449.470551,351.327026 411.542999,351.327026 373.196289,351.327026 
	C373.196289,359.708557 373.196289,367.581390 373.196289,375.900635 
	C403.647522,375.900635 434.071594,375.900635 464.826416,375.900635 
	C464.826416,386.062744 464.826416,395.791443 464.826416,406.056091 
	C434.397766,406.056091 403.996490,406.056091 373.187073,406.056091 
	C373.187073,414.459229 373.187073,422.344666 373.187073,430.863220 
	C411.190918,430.863220 449.240265,430.863220 487.529114,430.863220 
	C487.529114,441.089294 487.529114,450.691650 487.529114,460.700043 
	C437.562927,460.700043 387.669830,460.700043 337.417725,460.700043 
	C337.417725,414.449493 337.417725,368.063293 337.417725,321.378326 
	C387.396851,321.378326 437.292053,321.378326 487.775055,321.378326 
	C487.775055,328.509308 487.775055,335.460175 487.774963,342.894012 
z"/>
<path fill="#333434" opacity="1.000000" stroke="none" 
	d="
M664.287476,168.741974 
	C660.202820,159.781845 656.148010,151.220703 652.447144,142.509216 
	C651.174500,139.513641 650.260010,136.168625 650.100464,132.937866 
	C649.748962,125.822327 654.075562,121.144722 661.163940,120.901306 
	C668.981812,120.632851 676.816895,120.763550 684.642700,120.861725 
	C690.180786,120.931206 693.364380,124.236580 695.434326,129.063248 
	C700.726013,141.401962 706.102356,153.704346 711.701660,166.613312 
	C712.907043,165.202377 713.887512,164.184006 714.722229,163.057678 
	C722.946777,151.959381 731.229187,140.902435 739.321960,129.708511 
	C743.768555,123.557968 749.398804,120.370171 757.134094,120.714661 
	C763.450745,120.995972 769.791870,120.673950 776.118225,120.806160 
	C783.981384,120.970497 787.470581,125.806641 784.629639,133.119827 
	C783.270691,136.618271 781.026550,139.872620 778.726440,142.889175 
	C765.707397,159.963501 752.633545,176.998093 739.364014,193.877731 
	C736.914062,196.994202 736.423950,199.424423 738.151245,203.099365 
	C745.427979,218.581253 752.409546,234.202454 759.419006,249.808670 
	C760.567993,252.366928 761.556641,255.048294 762.203979,257.771515 
	C764.327148,266.703156 759.792603,273.159515 750.731873,273.623718 
	C743.423523,273.998199 736.077637,273.800751 728.752869,273.645935 
	C722.938843,273.523102 719.326782,270.251129 717.117615,265.008057 
	C711.765991,252.306885 706.295837,239.655670 700.553894,226.237457 
	C699.184204,227.957962 698.085144,229.252853 697.078735,230.616135 
	C688.676941,241.996658 680.195374,253.320206 671.941101,264.806946 
	C667.478516,271.016998 661.672791,273.949219 654.072205,273.761414 
	C648.079895,273.613342 642.078613,273.838501 636.085571,273.705597 
	C626.945068,273.502930 623.450928,267.991241 627.437500,259.692474 
	C629.146545,256.134827 631.561340,252.863892 633.972168,249.704346 
	C647.199341,232.369476 660.480896,215.075424 673.869507,197.865189 
	C675.621765,195.612747 675.990845,193.902679 674.683716,191.251755 
	C671.085754,183.954895 667.840820,176.484024 664.287476,168.741974 
z"/>
<path fill="#343535" opacity="1.000000" stroke="none" 
	d="
M520.987793,161.898132 
	C522.674255,152.299057 524.270203,143.122650 525.970276,133.965576 
	C527.534180,125.542351 532.965088,120.829178 541.567200,120.805260 
	C571.386475,120.722321 601.206177,120.738625 631.025513,120.796982 
	C637.624634,120.809891 639.664124,123.455734 638.530457,129.936371 
	C637.699280,134.687790 636.848083,139.436020 636.062256,144.194992 
	C634.732910,152.245972 631.828369,154.839798 623.779358,154.855545 
	C606.620728,154.889114 589.461975,154.866196 572.303284,154.866425 
	C570.661865,154.866440 569.020447,154.866409 567.139160,154.866409 
	C565.667542,162.983444 564.255493,170.771790 562.762573,179.005920 
	C575.665955,179.005920 588.136780,178.996185 600.607666,179.008850 
	C611.483704,179.019897 617.163208,183.417038 617.726318,192.225876 
	C618.414062,202.985062 612.257690,211.962173 602.495850,212.939377 
	C593.913147,213.798523 585.208923,213.485214 576.557190,213.598160 
	C570.242004,213.680603 563.924988,213.614288 556.896545,213.614288 
	C555.394226,222.100586 553.911011,230.479172 552.302429,239.565399 
	C555.589661,239.565399 558.199524,239.565369 560.809326,239.565384 
	C576.801880,239.565536 592.794617,239.531525 608.786987,239.579727 
	C617.298218,239.605377 619.080139,241.890121 617.503784,250.319962 
	C616.678345,254.734055 615.962402,259.168518 615.148010,263.584778 
	C613.738403,271.228760 610.826172,273.700958 602.895996,273.720551 
	C583.738342,273.767883 564.580505,273.736450 545.422729,273.736481 
	C535.593994,273.736511 525.764709,273.796570 515.936584,273.718689 
	C505.854034,273.638824 502.105347,269.146942 503.860840,259.125092 
	C509.513794,226.852615 515.242981,194.593506 520.987793,161.898132 
z"/>
<path fill="#343535" opacity="1.000000" stroke="none" 
	d="
M420.999878,273.734283 
	C411.001831,273.733032 401.502258,273.836945 392.006134,273.700653 
	C382.702606,273.567139 378.633759,268.608765 380.245361,259.454712 
	C387.744781,216.856628 395.272095,174.263412 402.843628,131.678101 
	C404.238159,123.834824 407.875000,120.851501 415.826019,120.787155 
	C423.823853,120.722435 431.823669,120.693962 439.820679,120.797142 
	C447.045197,120.890350 449.789612,124.292854 448.545654,131.333664 
	C442.438629,165.899338 436.324005,200.463654 430.231415,235.031876 
	C430.031342,236.167068 430.040253,237.339096 429.917633,238.939377 
	C442.207336,238.939377 454.344116,238.936844 466.480927,238.940506 
	C472.146362,238.942215 477.816284,238.819077 483.475830,239.005859 
	C488.331024,239.166061 490.551544,241.663452 489.875977,246.467560 
	C488.973389,252.886200 487.859161,259.293365 486.434082,265.614899 
	C485.115448,271.464050 481.801666,273.686768 474.988922,273.710541 
	C457.159454,273.772766 439.329590,273.733276 420.999878,273.734283 
z"/>
<path fill="#13A2C9" opacity="1.000000" stroke="none" 
	d="
M510.194702,446.992035 
	C510.194763,404.880707 510.194763,363.267395 510.194763,321.317017 
	C521.959656,321.317017 533.340698,321.317017 545.224304,321.317017 
	C545.224304,357.665100 545.224304,393.892944 545.224304,430.785950 
	C588.053711,430.785950 630.391541,430.785950 672.961060,430.785950 
	C672.961060,441.063110 672.961060,450.675629 672.961060,460.695862 
	C618.967163,460.695862 564.932739,460.695862 510.194641,460.695862 
	C510.194641,456.359650 510.194641,451.924866 510.194702,446.992035 
z"/>
<path fill="#0BA8CC" opacity="1.000000" stroke="none" 
	d="
M1358.249146,160.098907 
	C1342.125366,180.325089 1326.001587,200.551254 1309.206177,220.797882 
	C1300.628174,220.212219 1292.730835,219.314743 1284.813477,219.073456 
	C1274.825073,218.769043 1264.812744,219.227524 1254.825806,218.899460 
	C1250.159302,218.746140 1245.527954,217.518311 1240.880737,216.777512 
	C1253.412354,196.644272 1265.943970,176.511017 1279.162354,156.246460 
	C1284.760132,156.743393 1289.660034,157.795959 1294.583984,157.925201 
	C1314.202148,158.440063 1333.828247,158.643585 1353.449829,159.044907 
	C1355.056030,159.077774 1356.649658,159.732910 1358.249146,160.098907 
z"/>
<path fill="#14B6D3" opacity="1.000000" stroke="none" 
	d="
M1353.112915,72.049301 
	C1342.777222,78.815880 1331.792358,84.785851 1322.268677,92.548752 
	C1310.099243,102.468437 1299.108887,113.834625 1287.177979,124.276932 
	C1286.031738,123.653816 1285.327148,123.073174 1284.602783,123.047249 
	C1273.653564,122.655304 1262.703491,122.249451 1251.750000,122.029640 
	C1244.090576,121.875938 1236.412109,122.275688 1228.767822,121.901787 
	C1223.777466,121.657700 1218.833252,120.470795 1213.868286,119.706215 
	C1228.440308,99.920670 1245.368896,82.498169 1266.169189,68.324074 
	C1267.836670,68.596031 1268.796997,68.952698 1269.764282,68.973450 
	C1286.846802,69.339775 1303.929932,69.684204 1321.013794,69.986870 
	C1325.667969,70.069336 1330.342773,69.741135 1334.975952,70.063515 
	C1341.038452,70.485329 1347.068726,71.366013 1353.112915,72.049301 
z"/>
<path fill="#1B84BA" opacity="1.000000" stroke="none" 
	d="
M1055.145630,395.039215 
	C1072.621460,375.372803 1086.524414,353.279816 1099.855347,330.117310 
	C1122.176514,330.655487 1143.760132,331.373627 1165.343750,332.091766 
	C1152.237305,355.453064 1137.467041,377.653687 1119.024414,397.547546 
	C1116.211548,396.939636 1113.970581,396.108337 1111.712402,396.057922 
	C1092.858643,395.636963 1074.001587,395.359772 1055.145630,395.039215 
z"/>
<path fill="#12B2D2" opacity="1.000000" stroke="none" 
	d="
M1358.542725,159.956726 
	C1356.649658,159.732910 1355.056030,159.077774 1353.449829,159.044907 
	C1333.828247,158.643585 1314.202148,158.440063 1294.583984,157.925201 
	C1289.660034,157.795959 1284.760132,156.743393 1279.444336,156.065216 
	C1290.890503,138.759155 1304.550049,123.093597 1320.964233,109.081871 
	C1328.994873,109.314903 1336.272705,109.819664 1343.557861,109.968788 
	C1364.157104,110.390450 1384.761963,110.563004 1405.357788,111.099464 
	C1408.869507,111.190941 1412.347168,112.594604 1415.840576,113.392059 
	C1409.186035,117.806328 1402.048828,121.646713 1395.977539,126.754219 
	C1383.298950,137.420013 1371.183228,148.754669 1358.542725,159.956726 
z"/>
<path fill="#0AABCD" opacity="1.000000" stroke="none" 
	d="
M1213.574219,119.886688 
	C1218.833252,120.470795 1223.777466,121.657700 1228.767822,121.901787 
	C1236.412109,122.275688 1244.090576,121.875938 1251.750000,122.029640 
	C1262.703491,122.249451 1273.653564,122.655304 1284.602783,123.047249 
	C1285.327148,123.073174 1286.031738,123.653816 1286.862061,124.348221 
	C1277.218384,137.620941 1267.381226,150.464737 1257.740234,163.454132 
	C1254.391113,167.966446 1251.527588,172.839310 1247.714355,177.767838 
	C1223.745972,177.325226 1200.505615,176.662308 1177.265381,175.999390 
	C1189.270386,157.355301 1201.275269,138.711227 1213.574219,119.886688 
z"/>
<path fill="#208FBF" opacity="1.000000" stroke="none" 
	d="
M1165.600342,331.887695 
	C1143.760132,331.373627 1122.176514,330.655487 1100.101318,329.894531 
	C1109.356079,310.429016 1119.102417,291.006226 1129.512207,271.294128 
	C1139.768188,271.336578 1149.358887,271.755493 1158.954102,271.970428 
	C1165.762207,272.122925 1172.594116,271.698425 1179.382202,272.096924 
	C1184.681152,272.407990 1189.928833,273.588745 1195.199219,274.383057 
	C1185.418457,293.483215 1175.637695,312.583405 1165.600342,331.887695 
z"/>
<path fill="#0F7AB4" opacity="1.000000" stroke="none" 
	d="
M1180.190186,424.070099 
	C1168.014893,439.254547 1153.922729,452.275055 1136.710571,461.555511 
	C1108.972046,476.511536 1081.078125,474.323853 1053.234741,461.723511 
	C1049.783325,460.161591 1046.433472,458.375458 1042.927734,456.086517 
	C1070.196899,452.533112 1092.965210,440.138184 1113.741699,421.993896 
	C1130.827637,422.285004 1147.110107,422.658051 1163.393433,422.988495 
	C1167.223511,423.066223 1171.061035,422.890808 1174.886230,423.048523 
	C1176.665161,423.121857 1178.422852,423.713409 1180.190186,424.070099 
z"/>
<path fill="#189DC7" opacity="1.000000" stroke="none" 
	d="
M1240.583130,216.965988 
	C1245.527954,217.518311 1250.159302,218.746140 1254.825806,218.899460 
	C1264.812744,219.227524 1274.825073,218.769043 1284.813477,219.073456 
	C1292.730835,219.314743 1300.628174,220.212219 1308.943115,220.995102 
	C1298.166992,238.813248 1286.982178,256.454620 1275.282593,273.949158 
	C1270.217041,273.201813 1265.678711,272.216858 1261.113403,272.069946 
	C1244.682251,271.541138 1228.242188,271.295105 1211.805420,270.942261 
	C1220.275635,254.900253 1228.743530,238.857117 1237.218628,222.817673 
	C1238.221313,220.919617 1239.262329,219.041718 1240.583130,216.965988 
z"/>
<path fill="#2194C2" opacity="1.000000" stroke="none" 
	d="
M1211.514160,271.124969 
	C1228.242188,271.295105 1244.682251,271.541138 1261.113403,272.069946 
	C1265.678711,272.216858 1270.217041,273.201813 1275.014160,274.182739 
	C1264.782471,292.615723 1254.304443,310.668243 1243.155518,328.754272 
	C1241.200195,328.525757 1239.920654,328.061615 1238.630981,328.032349 
	C1221.872314,327.652252 1205.111206,327.371704 1188.353760,326.946533 
	C1186.508423,326.899658 1184.681763,326.113647 1182.846436,325.670471 
	C1191.442017,309.344574 1200.043335,293.021667 1208.624634,276.688263 
	C1209.550293,274.926117 1210.359497,273.102692 1211.514160,271.124969 
z"/>
<path fill="#0F7AB4" opacity="1.000000" stroke="none" 
	d="
M1054.851318,395.205444 
	C1074.001587,395.359772 1092.858643,395.636963 1111.712402,396.057922 
	C1113.970581,396.108337 1116.211548,396.939636 1118.722900,397.689636 
	C1099.955444,419.343231 1078.433350,437.017731 1049.636108,443.340454 
	C1026.933472,448.325104 1005.739136,443.310059 985.598328,432.568787 
	C985.402283,432.464264 985.397949,432.000061 985.221069,431.441772 
	C1013.793579,429.872131 1035.715454,415.557465 1054.851318,395.205444 
z"/>
<path fill="#19BBD7" opacity="1.000000" stroke="none" 
	d="
M1416.142090,113.290337 
	C1412.347168,112.594604 1408.869507,111.190941 1405.357788,111.099464 
	C1384.761963,110.563004 1364.157104,110.390450 1343.557861,109.968788 
	C1336.272705,109.819664 1328.994873,109.314903 1321.266724,108.950012 
	C1334.486084,96.143936 1349.951294,86.139748 1367.660400,79.248810 
	C1372.527222,80.395180 1376.920532,81.728668 1381.358521,81.899033 
	C1396.629639,82.485275 1411.915649,82.706444 1427.197388,82.989136 
	C1447.474121,83.364227 1467.752930,83.632141 1488.028076,84.077995 
	C1489.361572,84.107315 1490.670532,85.256554 1491.990845,85.884865 
	C1469.764038,89.825836 1448.336304,96.202766 1428.300659,106.809341 
	C1424.334106,108.909096 1420.395264,111.060837 1416.142090,113.290337 
z"/>
<path fill="#1E99C4" opacity="1.000000" stroke="none" 
	d="
M1195.467285,274.140808 
	C1189.928833,273.588745 1184.681152,272.407990 1179.382202,272.096924 
	C1172.594116,271.698425 1165.762207,272.122925 1158.954102,271.970428 
	C1149.358887,271.755493 1139.768188,271.336578 1129.735352,271.007111 
	C1136.950562,255.126633 1144.605835,239.243896 1153.007812,223.165833 
	C1164.847290,223.313690 1175.939941,223.663818 1187.032959,223.998032 
	C1198.288330,224.337143 1209.544067,224.660553 1220.799683,224.990845 
	C1212.444824,241.293411 1204.089966,257.595978 1195.467285,274.140808 
z"/>
<path fill="#20BED8" opacity="1.000000" stroke="none" 
	d="
M1353.489014,72.041321 
	C1347.068726,71.366013 1341.038452,70.485329 1334.975952,70.063515 
	C1330.342773,69.741135 1325.667969,70.069336 1321.013794,69.986870 
	C1303.929932,69.684204 1286.846802,69.339775 1269.764282,68.973450 
	C1268.796997,68.952698 1267.836670,68.596031 1266.498901,68.232162 
	C1284.856567,54.138901 1305.859741,45.430889 1328.688477,40.994717 
	C1364.299683,34.074646 1398.790771,39.675331 1432.907837,50.730392 
	C1405.287720,53.251774 1379.050781,60.719837 1353.489014,72.041321 
z"/>
<path fill="#13A1C8" opacity="1.000000" stroke="none" 
	d="
M1221.019165,224.716232 
	C1209.544067,224.660553 1198.288330,224.337143 1187.032959,223.998032 
	C1175.939941,223.663818 1164.847290,223.313690 1153.271484,222.948334 
	C1160.801880,207.471588 1168.815308,192.017059 1177.046997,176.280945 
	C1200.505615,176.662308 1223.745972,177.325226 1247.448853,177.979065 
	C1239.020508,193.460541 1230.129639,208.951096 1221.019165,224.716232 
z"/>
<path fill="#1D8ABD" opacity="1.000000" stroke="none" 
	d="
M1182.571533,325.893677 
	C1184.681763,326.113647 1186.508423,326.899658 1188.353760,326.946533 
	C1205.111206,327.371704 1221.872314,327.652252 1238.630981,328.032349 
	C1239.920654,328.061615 1241.200195,328.525757 1242.890869,328.959290 
	C1233.171387,345.989960 1223.045410,362.849152 1212.172974,379.881836 
	C1202.491943,379.703552 1193.558472,379.316437 1184.622314,379.008911 
	C1173.364624,378.621521 1162.104492,378.299072 1150.845459,377.948639 
	C1161.329224,360.671417 1171.812866,343.394165 1182.571533,325.893677 
z"/>
<path fill="#1A81B9" opacity="1.000000" stroke="none" 
	d="
M1150.566162,378.125763 
	C1162.104492,378.299072 1173.364624,378.621521 1184.622314,379.008911 
	C1193.558472,379.316437 1202.491943,379.703552 1211.923218,380.091522 
	C1201.872192,394.675568 1191.324463,409.223450 1180.483398,423.920715 
	C1178.422852,423.713409 1176.665161,423.121857 1174.886230,423.048523 
	C1171.061035,422.890808 1167.223511,423.066223 1163.393433,422.988495 
	C1147.110107,422.658051 1130.827637,422.285004 1114.043945,421.880188 
	C1125.790894,407.322845 1138.038940,392.812866 1150.566162,378.125763 
z"/>
<path fill="#6E6E6D" opacity="1.000000" stroke="none" 
	d="
M880.686707,120.693832 
	C867.643677,109.995766 854.000122,100.299278 837.526611,95.514885 
	C832.437317,94.036804 827.240784,92.928070 821.473572,91.496361 
	C832.547546,86.591728 843.552612,83.314156 855.125488,82.048859 
	C887.064880,78.556808 913.093811,91.062218 935.990662,112.010406 
	C937.550171,113.437141 939.193542,114.772247 940.910889,116.878052 
	C939.357361,118.403824 937.684265,119.905708 936.025269,119.890358 
	C919.335571,119.735916 902.648865,119.279396 885.959229,119.078079 
	C884.208496,119.056969 882.444519,120.128983 880.686707,120.693832 
z"/>
<path fill="#6E6F6E" opacity="1.000000" stroke="none" 
	d="
M829.000488,143.999649 
	C822.020874,137.591660 815.384094,130.751434 807.980164,124.878296 
	C797.229980,116.350677 785.219727,110.530479 770.779175,111.621811 
	C785.437866,105.101784 800.610352,101.654877 816.632019,103.461617 
	C842.042358,106.327103 862.068298,119.506157 879.767761,136.982407 
	C881.882751,139.070709 883.979614,141.177368 885.742859,143.615219 
	C871.646729,143.969299 857.892639,143.984894 844.138550,143.997360 
	C839.092529,144.001938 834.046509,143.999100 829.000488,143.999649 
z"/>
<path fill="#828282" opacity="1.000000" stroke="none" 
	d="
M932.991577,183.003662 
	C924.416443,171.542038 915.841309,160.080429 907.631897,148.302643 
	C914.154785,147.990952 920.311890,147.993134 926.468994,148.000565 
	C934.622864,148.010422 942.776733,148.048172 950.930542,148.028564 
	C956.827637,148.014374 962.724548,147.926392 968.621582,147.871338 
	C975.577087,157.784653 982.543335,167.690491 989.476379,177.619522 
	C990.506531,179.094803 991.379883,180.679596 991.953430,182.578705 
	C985.595337,182.962372 979.609009,183.043823 973.624023,182.983627 
	C966.490295,182.911880 959.357971,182.614563 952.224915,182.609055 
	C945.813843,182.604111 939.402710,182.861816 932.991577,183.003662 
z"/>
<path fill="#9E9E9F" opacity="1.000000" stroke="none" 
	d="
M918.803345,293.087585 
	C913.213379,281.970062 907.623474,270.852539 902.464355,259.370667 
	C920.167725,259.337982 937.439636,259.707977 954.713440,259.951385 
	C956.810120,259.980927 958.916504,259.328522 961.018433,258.992188 
	C965.645203,268.260559 970.278015,277.525940 974.892456,286.800476 
	C975.618103,288.258942 976.260315,289.758911 976.787231,291.945435 
	C975.114441,293.100769 973.584534,293.964020 972.078613,293.924164 
	C967.125122,293.792877 962.182434,293.091797 957.231750,293.048492 
	C944.423340,292.936371 931.612915,293.058838 918.803345,293.087585 
z"/>
<path fill="#828282" opacity="1.000000" stroke="none" 
	d="
M908.610596,170.882996 
	C914.314514,179.139084 920.037659,187.381973 925.709167,195.660294 
	C927.177307,197.803391 928.483215,200.057739 929.758728,202.941071 
	C928.150146,204.080734 926.639343,204.942276 925.144104,204.916168 
	C922.040527,204.862015 918.946289,204.064697 915.846191,204.051498 
	C901.130676,203.988831 886.414490,204.087112 871.698486,204.128082 
	C864.597534,193.290543 857.496582,182.453003 850.702148,171.287018 
	C852.946594,170.684341 854.887085,170.155518 856.821838,170.175766 
	C874.085327,170.356445 891.347839,170.633987 908.610596,170.882996 
z"/>
<path fill="#9E9E9F" opacity="1.000000" stroke="none" 
	d="
M983.233398,272.965698 
	C978.095581,262.726257 972.957764,252.486816 968.047241,241.509506 
	C970.031372,240.514420 971.792725,240.007507 973.544250,240.039337 
	C988.065796,240.303192 1002.584595,240.760208 1017.106750,240.903427 
	C1019.398071,240.926025 1021.702087,239.666245 1024.000244,238.999374 
	C1029.633423,250.428360 1035.266602,261.857361 1040.471313,273.643616 
	C1021.106445,273.655853 1002.169922,273.310791 983.233398,272.965698 
z"/>
<path fill="#BBBBBB" opacity="1.000000" stroke="none" 
	d="
M1003.947388,351.990051 
	C1006.801941,358.628845 1009.683716,365.256134 1012.500427,371.911011 
	C1014.087280,375.660217 1015.566772,379.454865 1016.718018,383.651215 
	C1010.933350,384.049072 1005.525208,384.010559 1000.117065,384.003204 
	C986.456665,383.984680 972.796204,383.980194 959.135803,383.970062 
	C954.456299,373.217804 949.776733,362.465576 945.539185,351.355103 
	C965.303162,351.327972 984.625244,351.658997 1003.947388,351.990051 
z"/>
<path fill="#B1B1B1" opacity="1.000000" stroke="none" 
	d="
M1003.914062,351.630310 
	C984.625244,351.658997 965.303162,351.327972 945.519104,350.993103 
	C940.476624,340.879761 935.896057,330.770264 931.647461,320.260468 
	C934.091492,319.573456 936.207703,319.012238 938.315247,319.043304 
	C955.529053,319.297180 972.741272,319.661621 989.953979,319.992432 
	C994.596191,330.418457 999.238464,340.844543 1003.914062,351.630310 
z"/>
<path fill="#959595" opacity="1.000000" stroke="none" 
	d="
M1023.955383,238.647827 
	C1021.702087,239.666245 1019.398071,240.926025 1017.106750,240.903427 
	C1002.584595,240.760208 988.065796,240.303192 973.544250,240.039337 
	C971.792725,240.007507 970.031372,240.514420 968.026855,241.162292 
	C961.625122,230.916840 955.471069,220.280716 949.702515,209.316650 
	C954.399719,208.992462 958.713623,208.908142 963.022644,209.017181 
	C974.091919,209.297302 985.159790,209.895233 996.226746,209.862900 
	C999.864319,209.852280 1004.283875,212.034332 1007.182922,207.688782 
	C1011.695374,215.877121 1016.214661,224.061707 1020.715332,232.256454 
	C1021.811646,234.252563 1022.847107,236.282135 1023.955383,238.647827 
z"/>
<path fill="#777777" opacity="1.000000" stroke="none" 
	d="
M968.465576,147.541016 
	C962.724548,147.926392 956.827637,148.014374 950.930542,148.028564 
	C942.776733,148.048172 934.622864,148.010422 926.468994,148.000565 
	C920.311890,147.993134 914.154785,147.990952 907.534058,147.982742 
	C898.390991,139.053101 889.711548,130.127136 880.859375,120.947510 
	C882.444519,120.128983 884.208496,119.056969 885.959229,119.078079 
	C902.648865,119.279396 919.335571,119.735916 936.025269,119.890358 
	C937.684265,119.905708 939.357361,118.403824 941.068604,117.173019 
	C948.988647,125.375771 956.878418,133.998444 964.724609,142.660645 
	C966.017822,144.088348 967.119385,145.689636 968.465576,147.541016 
z"/>
<path fill="#C6C5C4" opacity="1.000000" stroke="none" 
	d="
M959.220215,384.317596 
	C972.796204,383.980194 986.456665,383.984680 1000.117065,384.003204 
	C1005.525208,384.010559 1010.933350,384.049072 1016.774414,384.021851 
	C1020.148621,390.621887 1023.089783,397.273438 1026.119019,404.124084 
	C1014.263062,412.797394 1001.454163,417.716125 987.239380,418.985657 
	C983.940552,419.280273 980.606140,419.788666 977.337769,419.541687 
	C975.815735,419.426605 973.679260,418.070557 973.071350,416.716034 
	C968.311279,406.109222 963.854736,395.366150 959.220215,384.317596 
z"/>
<path fill="#B1B1B1" opacity="1.000000" stroke="none" 
	d="
M1052.899536,299.990417 
	C1057.283081,310.075256 1061.666748,320.160065 1065.686035,330.624237 
	C1060.597534,331.002594 1055.873291,330.993744 1051.148926,331.002075 
	C1037.373047,331.026398 1023.597168,331.057587 1009.821289,331.086060 
	C1005.243103,320.961395 1000.664978,310.836731 996.530884,300.353607 
	C1009.697449,300.328033 1022.418701,300.810730 1035.143311,300.927368 
	C1041.058716,300.981628 1046.980591,300.324860 1052.899536,299.990417 
z"/>
<path fill="#959595" opacity="1.000000" stroke="none" 
	d="
M960.971497,258.639587 
	C958.916504,259.328522 956.810120,259.980927 954.713440,259.951385 
	C937.439636,259.707977 920.167725,259.337982 902.422729,259.011169 
	C896.913147,249.622589 891.876038,240.229202 887.229187,230.445557 
	C893.240967,230.370209 898.859863,230.882584 904.484558,230.957809 
	C915.312317,231.102615 926.143372,231.005966 936.973022,230.996338 
	C940.069214,230.993591 943.165466,230.945801 946.261658,230.918671 
	C951.149292,240.041458 956.036987,249.164230 960.971497,258.639587 
z"/>
<path fill="#8C8B8B" opacity="1.000000" stroke="none" 
	d="
M946.164490,230.569946 
	C943.165466,230.945801 940.069214,230.993591 936.973022,230.996338 
	C926.143372,231.005966 915.312317,231.102615 904.484558,230.957809 
	C898.859863,230.882584 893.240967,230.370209 887.128967,230.097870 
	C881.722961,221.698212 876.807434,213.256012 871.795227,204.470947 
	C886.414490,204.087112 901.130676,203.988831 915.846191,204.051498 
	C918.946289,204.064697 922.040527,204.862015 925.144104,204.916168 
	C926.639343,204.942276 928.150146,204.080734 929.850586,203.272522 
	C935.387329,212.023010 940.727356,221.122116 946.164490,230.569946 
z"/>
<path fill="#777777" opacity="1.000000" stroke="none" 
	d="
M908.462769,170.548157 
	C891.347839,170.633987 874.085327,170.356445 856.821838,170.175766 
	C854.887085,170.155518 852.946594,170.684341 850.615967,170.966782 
	C843.225098,162.193680 836.226868,153.412354 829.114624,144.315338 
	C834.046509,143.999100 839.092529,144.001938 844.138550,143.997360 
	C857.892639,143.984894 871.646729,143.969299 885.899658,143.924713 
	C893.703979,152.667435 901.009399,161.440384 908.462769,170.548157 
z"/>
<path fill="#8C8B8B" opacity="1.000000" stroke="none" 
	d="
M1006.999756,207.403870 
	C1004.283875,212.034332 999.864319,209.852280 996.226746,209.862900 
	C985.159790,209.895233 974.091919,209.297302 963.022644,209.017181 
	C958.713623,208.908142 954.399719,208.992462 949.633118,208.984024 
	C943.835327,200.544708 938.492432,192.110046 933.070557,183.339539 
	C939.402710,182.861816 945.813843,182.604111 952.224915,182.609055 
	C959.357971,182.614563 966.490295,182.911880 973.624023,182.983627 
	C979.609009,183.043823 985.595337,182.962372 992.102417,182.915314 
	C997.354614,190.964310 1002.085632,199.041641 1006.999756,207.403870 
z"/>
<path fill="#A7A7A8" opacity="1.000000" stroke="none" 
	d="
M989.920471,319.638367 
	C972.741272,319.661621 955.529053,319.297180 938.315247,319.043304 
	C936.207703,319.012238 934.091492,319.573456 931.580322,319.913940 
	C927.101257,311.247681 923.021118,302.527618 918.872070,293.447601 
	C931.612915,293.058838 944.423340,292.936371 957.231750,293.048492 
	C962.182434,293.091797 967.125122,293.792877 972.078613,293.924164 
	C973.584534,293.964020 975.114441,293.100769 976.832886,292.302368 
	C980.093384,298.540222 983.142822,305.132263 986.220947,311.710876 
	C987.409485,314.251038 988.663025,316.760742 989.920471,319.638367 
z"/>
<path fill="#BBBBBB" opacity="1.000000" stroke="none" 
	d="
M1009.866699,331.457458 
	C1023.597168,331.057587 1037.373047,331.026398 1051.148926,331.002075 
	C1055.873291,330.993744 1060.597534,331.002594 1065.758057,330.988403 
	C1068.203125,335.483887 1070.383179,339.930695 1072.106567,344.547913 
	C1072.565186,345.776489 1071.978638,347.728638 1071.258423,349.001312 
	C1069.061768,352.883301 1066.565674,356.595917 1063.584351,360.679016 
	C1049.271729,360.681396 1035.560791,360.379181 1021.849854,360.076935 
	C1017.870605,350.660889 1013.891357,341.244873 1009.866699,331.457458 
z"/>
<path fill="#23BFD8" opacity="1.000000" stroke="none" 
	d="
M1492.417847,85.935326 
	C1490.670532,85.256554 1489.361572,84.107315 1488.028076,84.077995 
	C1467.752930,83.632141 1447.474121,83.364227 1427.197388,82.989136 
	C1411.915649,82.706444 1396.629639,82.485275 1381.358521,81.899033 
	C1376.920532,81.728668 1372.527222,80.395180 1368.027588,79.185455 
	C1383.499878,71.433456 1400.089722,68.235367 1417.082153,67.276756 
	C1447.694214,65.549782 1476.805908,72.568214 1505.182373,83.353210 
	C1505.435547,83.449448 1505.583496,83.822067 1506.073242,84.427376 
	C1501.503784,84.965691 1497.174316,85.475731 1492.417847,85.935326 
z"/>
<path fill="#A9A9A9" opacity="1.000000" stroke="none" 
	d="
M1052.871704,299.633453 
	C1046.980591,300.324860 1041.058716,300.981628 1035.143311,300.927368 
	C1022.418701,300.810730 1009.697449,300.328033 996.510071,299.991089 
	C991.818481,291.205597 987.591614,282.424194 983.299072,273.304260 
	C1002.169922,273.310791 1021.106445,273.655853 1040.509766,274.002014 
	C1044.932373,282.427582 1048.888062,290.852020 1052.871704,299.633453 
z"/>
<path fill="#C6C5C4" opacity="1.000000" stroke="none" 
	d="
M1021.887817,360.452454 
	C1035.560791,360.379181 1049.271729,360.681396 1063.398926,360.972290 
	C1055.213623,372.833740 1046.612061,384.706512 1038.010620,396.579315 
	C1037.289062,396.419006 1036.567505,396.258728 1035.845947,396.098419 
	C1031.205933,384.341614 1026.565918,372.584808 1021.887817,360.452454 
z"/>
<path fill="#FDFEFF" opacity="1.000000" stroke="none" 
	d="
M733.025391,430.904907 
	C729.228271,430.904907 725.927002,430.904907 722.308472,430.904907 
	C722.308472,404.324280 722.308472,378.118744 722.308472,351.694885 
	C752.915039,351.694885 783.324951,351.694885 813.977356,351.694885 
	C813.977356,378.076324 813.977356,404.170776 813.977356,430.904938 
	C787.052673,430.904938 760.286926,430.904938 733.025391,430.904907 
z"/>
</svg>