<svg width="180" height="53" viewBox="0 0 180 53" fill="none" xmlns="http://www.w3.org/2000/svg">
<path d="M173.333 52.0715H6.66667C3.00167 52.0715 0 49.1409 0 45.5626V6.50891C0 2.93062 3.00167 -3.99092e-05 6.66667 -3.99092e-05H173.333C176.998 -3.99092e-05 180 2.93062 180 6.50891V45.5626C180 49.1409 176.998 52.0715 173.333 52.0715Z" fill="#130F26"/>
<path d="M63.2234 13.3332C63.2234 14.4202 62.8901 15.2908 62.2334 15.9401C61.4784 16.7098 60.4951 17.097 59.2901 17.097C58.1384 17.097 57.155 16.7032 56.3484 15.927C55.54 15.1395 55.1367 14.1729 55.1367 13.0159C55.1367 11.859 55.54 10.8924 56.3484 10.1113C57.155 9.32861 58.1384 8.93481 59.2901 8.93481C59.8634 8.93481 60.41 9.05035 60.9317 9.26514C61.4517 9.48157 61.875 9.77447 62.1817 10.1357L61.4851 10.8224C60.9501 10.2057 60.2217 9.90139 59.2901 9.90139C58.4501 9.90139 57.7217 10.1878 57.1034 10.7655C56.4917 11.3448 56.185 12.0949 56.185 13.0159C56.185 13.9369 56.4917 14.6936 57.1034 15.2729C57.7217 15.8441 58.4501 16.137 59.2901 16.137C60.1817 16.137 60.9317 15.8441 61.5234 15.2664C61.9134 14.884 62.1351 14.3568 62.1934 13.6831H59.2901V12.7425H63.1634C63.2101 12.946 63.2234 13.1428 63.2234 13.3332Z" fill="white" stroke="white" stroke-width="0.16" stroke-miterlimit="10"/>
<path d="M69.3676 10.0729H65.7292V12.5463H69.0092V13.4869H65.7292V15.9603H69.3676V16.9187H64.6992V9.1145H69.3676V10.0729Z" fill="white" stroke="white" stroke-width="0.16" stroke-miterlimit="10"/>
<path d="M73.7031 16.9187H72.6731V10.0729H70.4414V9.1145H75.9364V10.0729H73.7031V16.9187Z" fill="white" stroke="white" stroke-width="0.16" stroke-miterlimit="10"/>
<path d="M79.9141 16.9187V9.1145H80.9424V16.9187H79.9141Z" fill="white" stroke="white" stroke-width="0.16" stroke-miterlimit="10"/>
<path d="M85.4999 16.9187H84.4783V10.0729H82.2383V9.1145H87.7399V10.0729H85.4999V16.9187Z" fill="white" stroke="white" stroke-width="0.16" stroke-miterlimit="10"/>
<path d="M98.1466 15.914C97.3582 16.7032 96.3816 17.097 95.2166 17.097C94.0449 17.097 93.0682 16.7032 92.2799 15.914C91.4932 15.1264 91.1016 14.1599 91.1016 13.0159C91.1016 11.872 91.4932 10.9054 92.2799 10.1178C93.0682 9.32861 94.0449 8.93481 95.2166 8.93481C96.3749 8.93481 97.3516 9.32861 98.1399 10.1243C98.9332 10.9184 99.3249 11.8785 99.3249 13.0159C99.3249 14.1599 98.9332 15.1264 98.1466 15.914ZM93.0416 15.2599C93.6349 15.8441 94.3566 16.137 95.2166 16.137C96.0699 16.137 96.7982 15.8441 97.3849 15.2599C97.9766 14.6757 98.2766 13.9255 98.2766 13.0159C98.2766 12.1063 97.9766 11.3561 97.3849 10.772C96.7982 10.1878 96.0699 9.89488 95.2166 9.89488C94.3566 9.89488 93.6349 10.1878 93.0416 10.772C92.4499 11.3561 92.1499 12.1063 92.1499 13.0159C92.1499 13.9255 92.4499 14.6757 93.0416 15.2599Z" fill="white" stroke="white" stroke-width="0.16" stroke-miterlimit="10"/>
<path d="M100.77 16.9187V9.1145H102.02L105.906 15.1841H105.951L105.906 13.6838V9.1145H106.935V16.9187H105.861L101.791 10.5497H101.746L101.791 12.0565V16.9187H100.77Z" fill="white" stroke="white" stroke-width="0.16" stroke-miterlimit="10"/>
<path d="M90.8454 28.316C87.7137 28.316 85.1554 30.643 85.1554 33.8535C85.1554 37.038 87.7137 39.3894 90.8454 39.3894C93.9837 39.3894 96.5421 37.038 96.5421 33.8535C96.5421 30.643 93.9837 28.316 90.8454 28.316ZM90.8454 37.2089C89.1271 37.2089 87.6487 35.8241 87.6487 33.8535C87.6487 31.8569 89.1271 30.4965 90.8454 30.4965C92.5637 30.4965 94.0487 31.8569 94.0487 33.8535C94.0487 35.8241 92.5637 37.2089 90.8454 37.2089ZM78.4304 28.316C75.2921 28.316 72.7404 30.643 72.7404 33.8535C72.7404 37.038 75.2921 39.3894 78.4304 39.3894C81.5671 39.3894 84.1204 37.038 84.1204 33.8535C84.1204 30.643 81.5671 28.316 78.4304 28.316ZM78.4304 37.2089C76.7104 37.2089 75.2271 35.8241 75.2271 33.8535C75.2271 31.8569 76.7104 30.4965 78.4304 30.4965C80.1487 30.4965 81.6271 31.8569 81.6271 33.8535C81.6271 35.8241 80.1487 37.2089 78.4304 37.2089ZM63.6571 30.0133V32.3662H69.4121C69.2437 33.681 68.7937 34.6476 68.1037 35.3213C67.2637 36.1349 65.9554 37.038 63.6571 37.038C60.1154 37.038 57.3421 34.2473 57.3421 30.7894C57.3421 27.3316 60.1154 24.5409 63.6571 24.5409C65.5721 24.5409 66.9654 25.2715 67.9937 26.2185L69.6921 24.5604C68.2537 23.2195 66.3404 22.1895 63.6571 22.1895C58.8004 22.1895 54.7188 26.0477 54.7188 30.7894C54.7188 35.5312 58.8004 39.3894 63.6571 39.3894C66.2821 39.3894 68.2537 38.5497 69.8037 36.9746C71.3921 35.4238 71.8871 33.2433 71.8871 31.4826C71.8871 30.9359 71.8404 30.4331 71.7571 30.0133H63.6571ZM124.067 31.8374C123.599 30.5991 122.154 28.316 119.21 28.316C116.294 28.316 113.865 30.56 113.865 33.8535C113.865 36.955 116.269 39.3894 119.49 39.3894C122.095 39.3894 123.599 37.8386 124.217 36.9355L122.284 35.6777C121.639 36.5987 120.76 37.2089 119.49 37.2089C118.229 37.2089 117.324 36.6442 116.744 35.5312L124.329 32.4671L124.067 31.8374ZM116.334 33.681C116.269 31.5461 118.032 30.4526 119.295 30.4526C120.285 30.4526 121.125 30.9359 121.405 31.6275L116.334 33.681ZM110.169 39.0526H112.662V22.7802H110.169V39.0526ZM106.085 29.5495H106.002C105.442 28.9019 104.374 28.316 103.02 28.316C100.18 28.316 97.5837 30.7504 97.5837 33.8714C97.5837 36.9746 100.18 39.3894 103.02 39.3894C104.374 39.3894 105.442 38.7987 106.002 38.1315H106.085V38.9256C106.085 41.0427 104.927 42.1801 103.059 42.1801C101.535 42.1801 100.59 41.1061 100.2 40.203L98.0321 41.0866C98.6571 42.5544 100.312 44.3606 103.059 44.3606C105.982 44.3606 108.449 42.6813 108.449 38.5953V28.6529H106.085V29.5495ZM103.234 37.2089C101.515 37.2089 100.077 35.8046 100.077 33.8714C100.077 31.9204 101.515 30.4965 103.234 30.4965C104.927 30.4965 106.262 31.9204 106.262 33.8714C106.262 35.8046 104.927 37.2089 103.234 37.2089ZM135.74 22.7802H129.777V39.0526H132.264V32.887H135.74C138.502 32.887 141.21 30.9359 141.21 27.8328C141.21 24.7312 138.495 22.7802 135.74 22.7802ZM135.805 30.6235H132.264V25.0437H135.805C137.662 25.0437 138.722 26.5489 138.722 27.8328C138.722 29.0922 137.662 30.6235 135.805 30.6235ZM151.177 28.2851C149.38 28.2851 147.512 29.0597 146.744 30.7764L148.95 31.6795C149.425 30.7764 150.299 30.4835 151.222 30.4835C152.512 30.4835 153.82 31.2402 153.84 32.5762V32.747C153.39 32.4932 152.427 32.1173 151.242 32.1173C148.865 32.1173 146.444 33.3947 146.444 35.7786C146.444 37.959 148.39 39.3634 150.579 39.3634C152.252 39.3634 153.175 38.6262 153.755 37.7687H153.84V39.0265H156.242V32.7844C156.242 29.8993 154.035 28.2851 151.177 28.2851ZM150.877 37.2024C150.064 37.2024 148.93 36.8086 148.93 35.8241C148.93 34.5646 150.344 34.0813 151.567 34.0813C152.662 34.0813 153.175 34.3173 153.84 34.6281C153.645 36.1349 152.317 37.2024 150.877 37.2024ZM164.992 28.6415L162.134 35.6956H162.049L159.094 28.6415H156.412L160.852 38.4993L158.319 43.9847H160.917L167.759 28.6415H164.992ZM142.577 39.0526H145.07V22.7802H142.577V39.0526Z" fill="white"/>
<path d="M13.9113 9.81456C13.5196 10.2149 13.293 10.8381 13.293 11.6452V40.4343C13.293 41.2414 13.5196 41.8646 13.9113 42.2649L14.008 42.3528L30.5313 26.2269V25.8461L14.008 9.72018L13.9113 9.81456Z" fill="url(#paint0_linear_11055_73393)"/>
<path d="M36.0329 31.6028L30.5312 26.2248V25.844L36.0396 20.466L36.1629 20.5359L42.6862 24.1598C44.5479 25.1882 44.5479 26.8805 42.6862 27.9155L36.1629 31.5328L36.0329 31.6028Z" fill="url(#paint1_linear_11055_73393)"/>
<path d="M36.1657 31.5326L30.5341 26.0342L13.9141 42.2626C14.5324 42.8973 15.5407 42.9737 16.6874 42.3391L36.1657 31.5326Z" fill="url(#paint2_linear_11055_73393)"/>
<path d="M36.1657 20.5379L16.6874 9.73147C15.5407 9.10336 14.5324 9.17983 13.9141 9.81446L30.5341 26.0364L36.1657 20.5379Z" fill="url(#paint3_linear_11055_73393)"/>
<defs>
<linearGradient id="paint0_linear_11055_73393" x1="29.0642" y1="40.7341" x2="7.22334" y2="18.364" gradientUnits="userSpaceOnUse">
<stop stop-color="#00A0FF"/>
<stop offset="0.0066" stop-color="#00A1FF"/>
<stop offset="0.2601" stop-color="#00BEFF"/>
<stop offset="0.5122" stop-color="#00D2FF"/>
<stop offset="0.7604" stop-color="#00DFFF"/>
<stop offset="1" stop-color="#00E3FF"/>
</linearGradient>
<linearGradient id="paint1_linear_11055_73393" x1="45.1104" y1="26.0326" x2="12.8479" y2="26.0326" gradientUnits="userSpaceOnUse">
<stop stop-color="#FFE000"/>
<stop offset="0.4087" stop-color="#FFBD00"/>
<stop offset="0.7754" stop-color="#FFA500"/>
<stop offset="1" stop-color="#FF9C00"/>
</linearGradient>
<linearGradient id="paint2_linear_11055_73393" x1="33.1034" y1="23.0452" x2="3.48537" y2="-7.29054" gradientUnits="userSpaceOnUse">
<stop stop-color="#FF3A44"/>
<stop offset="1" stop-color="#C31162"/>
</linearGradient>
<linearGradient id="paint3_linear_11055_73393" x1="9.73046" y1="51.8428" x2="22.9562" y2="38.2967" gradientUnits="userSpaceOnUse">
<stop stop-color="#32A071"/>
<stop offset="0.0685" stop-color="#2DA771"/>
<stop offset="0.4762" stop-color="#15CF74"/>
<stop offset="0.8009" stop-color="#06E775"/>
<stop offset="1" stop-color="#00F076"/>
</linearGradient>
</defs>
</svg>
