<svg width="36" height="36" viewBox="0 0 36 36" fill="none" xmlns="http://www.w3.org/2000/svg">
<g clip-path="url(#clip0_8499_204)">
<g opacity="0.06">
<rect width="36" height="36" rx="4" fill="#4E4F51"/>
</g>
<path d="M17.9787 13.109C15.4492 13.109 13.4334 15.1643 13.4334 17.6544C13.4334 20.184 15.4492 22.1998 17.9787 22.1998C20.4688 22.1998 22.5241 20.184 22.5241 17.6544C22.5241 15.1643 20.4688 13.109 17.9787 13.109ZM17.9787 20.6188C16.3582 20.6188 15.0144 19.3144 15.0144 17.6544C15.0144 16.0339 16.3187 14.7296 17.9787 14.7296C19.5993 14.7296 20.9036 16.0339 20.9036 17.6544C20.9036 19.3144 19.5993 20.6188 17.9787 20.6188ZM23.7494 12.9509C23.7494 12.3581 23.2751 11.8838 22.6822 11.8838C22.0893 11.8838 21.615 12.3581 21.615 12.9509C21.615 13.5438 22.0893 14.0181 22.6822 14.0181C23.2751 14.0181 23.7494 13.5438 23.7494 12.9509ZM26.7533 14.0181C26.6742 12.5952 26.358 11.3304 25.3304 10.3028C24.3027 9.27514 23.0379 8.95894 21.615 8.87989C20.1526 8.80084 15.7654 8.80084 14.3029 8.87989C12.88 8.95894 11.6548 9.27514 10.5876 10.3028C9.55995 11.3304 9.24375 12.5952 9.16471 14.0181C9.08566 15.4805 9.08566 19.8678 9.16471 21.3302C9.24375 22.7531 9.55995 23.9784 10.5876 25.0455C11.6548 26.0732 12.88 26.3894 14.3029 26.4684C15.7654 26.5475 20.1526 26.5475 21.615 26.4684C23.0379 26.3894 24.3027 26.0732 25.3304 25.0455C26.358 23.9784 26.6742 22.7531 26.7533 21.3302C26.8323 19.8678 26.8323 15.4805 26.7533 14.0181ZM24.8561 22.8717C24.5794 23.6622 23.947 24.255 23.196 24.5712C22.0103 25.0455 19.2435 24.927 17.9787 24.927C16.6744 24.927 13.9077 25.0455 12.7615 24.5712C11.971 24.255 11.3781 23.6622 11.0619 22.8717C10.5876 21.7255 10.7062 18.9587 10.7062 17.6544C10.7062 16.3896 10.5876 13.6229 11.0619 12.4371C11.3781 11.6861 11.971 11.0933 12.7615 10.7771C13.9077 10.3028 16.6744 10.4214 17.9787 10.4214C19.2435 10.4214 22.0103 10.3028 23.196 10.7771C23.947 11.0538 24.5399 11.6861 24.8561 12.4371C25.3304 13.6229 25.2118 16.3896 25.2118 17.6544C25.2118 18.9587 25.3304 21.7255 24.8561 22.8717Z" fill="#4E4F51"/>
</g>
<defs>
<clipPath id="clip0_8499_204">
<rect width="36" height="36" fill="white"/>
</clipPath>
</defs>
</svg>
