<svg version="1.1" id="Layer_1" xmlns="http://www.w3.org/2000/svg" xmlns:xlink="http://www.w3.org/1999/xlink" x="0px" y="0px"
	 width="100%" viewBox="0 0 1231 516" enable-background="new 0 0 1231 516" xml:space="preserve">
<path fill="#FEFFFF" opacity="1.000000" stroke="none" 
	d="
M731.000000,517.000000 
	C487.333344,517.000000 244.166702,517.000000 1.000033,517.000000 
	C1.000022,345.000031 1.000022,173.000046 1.000011,1.000056 
	C411.333282,1.000037 821.666565,1.000037 1232.000000,1.000019 
	C1232.000000,172.999939 1232.000000,344.999878 1232.000000,516.999878 
	C1065.166626,517.000000 898.333313,517.000000 731.000000,517.000000 
M874.831909,193.171448 
	C871.772278,190.008667 868.712585,186.845901 865.249390,183.100952 
	C849.528931,168.060287 826.997375,163.105408 813.792419,171.915955 
	C824.443542,172.075317 831.536926,178.707870 839.048157,185.715378 
	C842.064941,189.131775 845.081665,192.548187 848.282959,196.609833 
	C850.853882,200.073685 853.424805,203.537537 856.160767,207.671829 
	C858.638245,211.496033 861.115723,215.320236 863.826965,219.825378 
	C865.979309,223.542389 868.131592,227.259384 870.434082,231.631287 
	C873.221008,236.593826 876.007996,241.556366 878.852356,247.214020 
	C881.492737,252.506805 884.133179,257.799591 886.909668,263.816284 
	C889.905212,270.226013 892.900757,276.635742 895.983704,283.783051 
	C898.925598,290.223145 901.867554,296.663239 904.907104,303.842926 
	C907.604614,310.236450 910.175537,316.688934 913.102722,322.975525 
	C913.713501,324.287354 915.620361,325.801697 916.964172,325.834869 
	C925.445618,326.044342 933.064514,323.403625 940.118713,318.135712 
	C937.732117,312.833252 935.503906,307.882751 933.080566,302.202087 
	C930.139099,295.381897 927.197632,288.561707 924.103882,281.034332 
	C921.136841,274.611084 918.169800,268.187866 915.063049,261.059753 
	C912.390137,255.702362 909.717163,250.344971 906.932800,244.281631 
	C904.306152,239.490326 901.679504,234.699005 898.927307,229.224167 
	C896.664734,225.462082 894.402100,221.699982 891.969604,217.261902 
	C889.441711,213.472107 886.913757,209.682327 884.099060,205.246567 
	C881.097290,201.425430 878.095581,197.604309 874.831909,193.171448 
M922.378540,260.659698 
	C924.529602,265.130890 926.680664,269.602081 928.906555,274.818390 
	C930.950256,279.541809 932.993958,284.265259 935.076050,289.725067 
	C938.388550,297.729126 941.701050,305.733185 945.013550,313.737213 
	C945.602112,313.897339 946.190735,314.057465 946.779297,314.217590 
	C952.162903,306.137909 957.546570,298.058197 963.016846,289.221497 
	C960.724792,283.761871 958.432739,278.302216 956.002075,272.132050 
	C954.019775,267.747894 952.037415,263.363739 949.809265,258.303253 
	C947.542969,253.530869 945.276672,248.758514 942.923706,243.270050 
	C940.410828,238.489731 937.897949,233.709412 935.155212,228.230499 
	C931.815430,222.399857 928.475647,216.569214 924.976379,210.081848 
	C921.814514,205.349792 918.652649,200.617752 915.187256,195.241394 
	C911.333374,190.429764 907.479492,185.618134 903.282776,180.192535 
	C898.378784,175.731155 893.807434,170.821030 888.507935,166.893311 
	C873.235413,155.574295 856.674683,153.930054 837.578674,162.018082 
	C852.543945,164.335693 862.843140,172.278717 872.876221,181.800705 
	C877.302979,186.861450 881.729797,191.922195 886.324341,197.627228 
	C890.137512,202.950226 893.950745,208.273224 897.841675,214.263748 
	C901.101990,219.748825 904.362366,225.233887 907.789795,231.346863 
	C910.212769,235.890289 912.635803,240.433731 915.108215,245.688461 
	C917.487610,250.451736 919.867004,255.215012 922.378540,260.659698 
M982.052795,328.653625 
	C972.372192,336.677887 961.578308,342.382111 948.462524,344.155853 
	C975.992737,359.504578 994.732788,351.541565 1014.376770,331.602448 
	C1020.232361,323.726532 1026.087891,315.850616 1032.491821,307.583313 
	C1038.371338,297.737488 1044.250854,287.891663 1050.687256,277.664764 
	C1056.159058,268.177155 1061.630981,258.689545 1067.669556,248.812408 
	C1073.816528,239.293304 1079.963623,229.774200 1086.698486,219.903580 
	C1096.254395,208.977386 1105.810425,198.051178 1115.988159,186.921814 
	C1134.111938,171.160568 1154.739014,160.798462 1180.188965,158.375336 
	C1138.604492,141.584976 1101.866089,149.252411 1073.285400,185.259186 
	C1066.176025,195.835236 1059.066650,206.411285 1051.405029,217.389435 
	C1046.305054,226.928223 1041.205078,236.467026 1035.620850,246.513107 
	C1030.649780,256.130829 1025.678589,265.748535 1020.178406,275.853088 
	C1014.423706,285.506256 1008.668945,295.159393 1002.340210,305.178589 
	C995.777954,312.883789 989.215637,320.589020 982.052795,328.653625 
M954.141785,314.178864 
	C944.979370,323.968048 934.091797,330.619202 920.343323,332.965759 
	C927.162109,335.491150 933.938110,338.144287 940.865051,338.625824 
	C959.780151,339.940765 973.009644,328.960724 985.830994,316.079559 
	C992.610962,306.739807 999.390930,297.400055 1006.734558,287.695190 
	C1011.918396,277.832428 1017.102173,267.969696 1022.795288,257.656647 
	C1026.933838,249.253662 1031.072266,240.850677 1035.762939,231.999023 
	C1041.240845,222.356110 1046.718750,212.713196 1052.755493,202.713165 
	C1060.652954,192.538391 1068.550415,182.363617 1077.040405,171.934967 
	C1095.264038,153.986801 1117.246948,144.092911 1142.761108,141.090485 
	C1134.316528,138.863068 1125.933716,136.890671 1117.436401,135.896622 
	C1084.769531,132.075180 1059.328003,145.224426 1038.436768,170.328201 
	C1031.568115,180.534271 1024.699585,190.740326 1017.284424,201.336975 
	C1012.535828,210.558762 1007.787231,219.780533 1002.547974,229.490128 
	C998.270630,238.289581 993.993347,247.089050 989.172363,256.309937 
	C984.441528,265.859070 979.710693,275.408203 974.452576,285.387482 
	C967.879761,294.893890 961.306946,304.400299 954.141785,314.178864 
M68.859100,273.269287 
	C63.807865,291.990173 58.756630,310.711029 53.623455,329.735596 
	C74.071411,329.735596 93.872673,329.735596 113.738609,329.735596 
	C114.152344,328.566010 114.614105,327.492889 114.914932,326.376465 
	C123.605583,294.123657 132.404617,261.898926 140.822617,229.575012 
	C142.080673,224.744232 144.101593,223.581543 148.831467,223.604904 
	C188.486694,223.800735 228.143860,223.619995 267.798767,223.845383 
	C272.446960,223.871811 274.076294,222.276947 275.011627,218.085632 
	C276.820526,209.979675 279.097412,201.977493 281.211151,193.940399 
	C283.375977,185.709091 285.577606,177.487457 287.834839,168.991699 
	C223.815430,168.991699 160.523224,168.991699 96.815697,168.991699 
	C87.542625,203.498596 78.275963,237.981644 68.859100,273.269287 
M202.500183,55.568905 
	C179.012894,55.568932 155.524948,55.656605 132.039032,55.477169 
	C128.396408,55.449341 126.871513,56.515499 125.962189,60.047295 
	C121.861130,75.975746 117.457787,91.826164 113.201653,107.714958 
	C110.084999,119.349915 107.027817,131.000809 103.887093,142.860001 
	C124.212601,142.860001 144.000687,142.860001 164.012466,142.860001 
	C166.395416,133.939240 169.085510,125.186195 170.977615,116.263924 
	C172.020584,111.345695 174.224319,110.189972 179.016586,110.209816 
	C224.824310,110.399460 270.633240,110.286499 316.441498,110.395012 
	C319.977905,110.403381 321.749115,109.661270 322.563660,105.858566 
	C324.127472,98.557770 326.341003,91.395691 328.298981,84.179855 
	C330.839783,74.816055 333.394226,65.455948 336.085876,55.568771 
	C291.398651,55.568771 247.449432,55.568771 202.500183,55.568905 
M646.516357,178.426834 
	C642.095703,178.426834 637.674988,178.426834 632.071472,178.426834 
	C654.797485,205.066925 676.675598,230.713165 698.648682,256.470612 
	C676.528870,282.342224 654.761597,307.801575 632.362244,334.000183 
	C640.773315,334.000183 648.022217,333.225006 655.037720,334.174561 
	C666.730835,335.757233 674.281860,331.226440 681.314392,322.014374 
	C692.596008,307.236267 705.304260,293.547272 717.711609,279.044952 
	C719.614868,281.183075 721.283630,283.000793 722.890381,284.871857 
	C736.021667,300.163574 749.112976,315.489868 762.312439,330.722443 
	C763.515503,332.110840 765.369629,333.815430 766.955627,333.851074 
	C778.710144,334.115540 790.473389,333.994385 803.313904,333.994385 
	C780.744812,307.643311 758.850159,282.079651 736.903015,256.454712 
	C759.172119,230.485764 781.093994,204.921677 803.813904,178.427017 
	C791.493591,178.427017 780.536011,178.228394 769.596191,178.581390 
	C767.179504,178.659363 764.165955,180.102844 762.551208,181.917664 
	C752.698059,192.991592 743.176575,204.360291 733.529419,215.617828 
	C728.360962,221.649063 723.162476,227.654556 718.006287,233.638336 
	C717.265381,233.073242 716.955383,232.911179 716.743713,232.664658 
	C706.109009,220.279556 695.512207,207.861740 684.842224,195.507187 
	C679.956848,189.850586 675.909363,182.170120 669.690613,179.330597 
	C663.458862,176.485123 654.995361,178.527344 646.516357,178.426834 
M577.500000,334.003540 
	C591.424500,334.003540 605.348938,334.003540 619.322754,334.003540 
	C619.322754,324.299835 619.322754,315.243591 619.322754,305.868225 
	C617.137207,305.868225 615.318237,305.868256 613.499268,305.868256 
	C582.514832,305.867859 551.530334,305.878265 520.545898,305.861053 
	C509.935760,305.855164 506.749390,302.718018 506.741547,292.262787 
	C506.721375,265.442932 506.730621,238.623047 506.742584,211.803177 
	C506.743286,210.221893 506.871979,208.640656 506.960938,206.605743 
	C544.800232,206.605743 582.027283,206.605743 619.334473,206.605743 
	C619.334473,197.057709 619.334473,188.001434 619.334473,178.725922 
	C617.696106,178.607605 616.397888,178.432388 615.099670,178.431946 
	C574.953125,178.418152 534.806580,178.390244 494.660156,178.442795 
	C483.834351,178.456970 478.328217,184.000153 478.315826,194.772980 
	C478.277954,227.756378 478.268036,260.739929 478.356079,293.723175 
	C478.365784,297.357880 478.730011,301.068878 479.524261,304.611206 
	C483.447540,322.108917 498.885773,333.879822 518.029480,333.979248 
	C537.519165,334.080475 557.009766,334.002838 577.500000,334.003540 
M343.881653,292.491058 
	C343.881653,254.728577 343.881653,216.966095 343.881653,178.934265 
	C334.302216,178.934265 325.261993,178.934265 315.947052,178.934265 
	C315.856720,180.531357 315.719269,181.830536 315.718964,183.129745 
	C315.708771,228.263809 315.686798,273.397888 315.731262,318.531891 
	C315.741333,328.763672 321.187042,333.987091 331.636505,333.991577 
	C372.273804,334.009033 412.911133,334.001282 453.548431,333.988037 
	C454.999939,333.987549 456.451416,333.830017 457.925720,333.744324 
	C457.925720,324.352936 457.925720,315.302399 457.925720,305.797485 
	C419.849121,305.797485 382.121185,305.797485 343.881592,305.797485 
	C343.881592,301.397034 343.881592,297.442108 343.881653,292.491058 
M525.568176,242.020264 
	C523.133789,242.020264 520.699402,242.020264 518.220337,242.020264 
	C518.220337,251.734192 518.220337,260.814392 518.220337,269.994934 
	C547.852478,269.994934 577.199585,269.994934 606.651978,269.994934 
	C606.651978,260.561066 606.651978,251.494659 606.651978,242.020279 
	C579.757385,242.020279 553.153381,242.020279 525.568176,242.020264 
M435.935425,420.371307 
	C424.386688,414.966827 412.272766,417.671509 400.383728,417.078125 
	C400.383728,436.124115 400.383728,454.357025 400.383728,472.256378 
	C410.064972,472.256378 419.552673,473.025665 428.856140,472.045898 
	C438.694061,471.009857 445.602295,464.674194 447.038574,454.847107 
	C448.088501,447.663544 447.345734,440.040222 446.266144,432.781860 
	C445.467438,427.411835 441.590027,423.349365 435.935425,420.371307 
M508.170105,448.590820 
	C509.601410,448.492096 511.032684,448.393341 512.457642,448.295074 
	C512.457642,445.214355 512.457642,442.604004 512.457642,439.403931 
	C504.868317,439.403931 497.497894,439.403931 490.133209,439.403931 
	C490.133209,434.711853 490.133209,430.620331 490.133209,426.159241 
	C498.847870,426.159241 507.285858,426.159241 515.747925,426.159241 
	C515.747925,423.008728 515.747925,420.237061 515.747925,417.350952 
	C503.349976,417.350952 491.165710,417.350952 479.013428,417.350952 
	C479.013428,436.066132 479.013428,454.462738 479.013428,472.881012 
	C491.570038,472.881012 503.834290,472.881012 516.322876,472.881012 
	C516.322876,469.903229 516.322876,467.147797 516.322876,463.820679 
	C507.423523,463.820679 498.712250,463.820679 490.106171,463.820679 
	C490.106171,458.470367 490.106171,453.694122 490.106171,448.590790 
	C495.982666,448.590790 501.609772,448.590790 508.170105,448.590820 
M333.460815,426.436401 
	C336.876434,426.436401 340.292053,426.436401 343.647797,426.436401 
	C343.647797,422.913116 343.647797,420.163361 343.647797,417.259033 
	C331.252686,417.259033 319.171600,417.259033 306.879486,417.259033 
	C306.879486,435.898621 306.879486,454.310791 306.879486,472.711487 
	C319.524231,472.711487 331.899872,472.711487 344.215515,472.711487 
	C344.215515,469.597992 344.215515,466.884644 344.215515,463.664185 
	C335.236420,463.664185 326.661255,463.664185 318.260651,463.664185 
	C318.260651,458.389648 318.260651,453.641998 318.260651,448.409637 
	C325.905853,448.409637 333.164001,448.409637 340.288940,448.409637 
	C340.288940,445.175262 340.288940,442.458893 340.288940,439.163391 
	C332.632843,439.163391 325.410950,439.163391 318.207764,439.163391 
	C318.207764,434.646179 318.207764,430.731171 318.207764,426.435730 
	C323.188599,426.435730 327.830444,426.435730 333.460815,426.436401 
M716.615295,473.197296 
	C726.875977,475.570435 735.831116,471.420074 737.757507,461.962585 
	C739.077026,455.484161 739.092346,448.297180 737.758850,441.824921 
	C735.752014,432.084290 725.265015,427.382233 716.192261,431.222229 
	C713.768555,432.248016 711.767944,434.273651 709.301208,436.034302 
	C709.187012,434.149109 709.099792,432.709015 709.002625,431.104645 
	C705.569153,431.104645 702.296265,431.104645 698.998535,431.104645 
	C698.998535,450.850067 698.998535,470.399048 698.998535,489.851807 
	C702.565186,489.851807 705.788086,489.851807 709.159119,489.851807 
	C709.159119,486.174774 709.159180,482.854919 709.159180,479.535065 
	C709.159180,476.115234 709.159119,472.695435 709.159119,468.771729 
	C711.768799,470.425446 713.801147,471.713348 716.615295,473.197296 
M688.429443,456.839813 
	C688.554565,454.353546 688.943054,451.847626 688.759521,449.384369 
	C687.933594,438.296478 683.480774,432.078644 675.125366,430.347900 
	C668.783203,429.034180 663.456726,431.130096 659.077881,436.216431 
	C658.752197,434.138702 658.507812,432.579681 658.294006,431.215820 
	C654.664307,431.215820 651.417297,431.215820 648.152527,431.215820 
	C648.152527,450.976440 648.152527,470.425507 648.152527,489.855713 
	C651.725525,489.855713 655.120605,489.855713 658.880493,489.855713 
	C658.880493,482.758972 658.880493,476.019196 658.880493,468.988708 
	C672.149475,479.945587 687.500610,471.191956 688.429443,456.839813 
M819.372009,470.895447 
	C820.383728,469.930054 821.395447,468.964691 822.829590,467.596252 
	C822.994446,469.852234 823.106750,471.388672 823.211975,472.828735 
	C826.894958,472.828735 830.151001,472.828735 833.786011,472.828735 
	C833.786011,454.285126 833.786011,436.012451 833.786011,417.739777 
	C833.786011,416.617798 833.786011,415.495819 833.786011,414.228271 
	C829.962524,414.228271 826.597473,414.228271 822.715820,414.228271 
	C822.715820,421.376648 822.715820,428.217865 822.715820,435.575134 
	C812.900085,425.140320 795.333313,430.307312 793.757202,444.981873 
	C793.216003,450.020660 793.099670,455.310791 794.014404,460.259644 
	C796.276672,472.500183 807.685059,477.401154 819.372009,470.895447 
M564.092590,484.443665 
	C564.092590,466.692352 564.092590,448.941040 564.092590,431.184265 
	C560.333069,431.184265 557.096680,431.184265 553.804565,431.184265 
	C553.575012,432.696625 553.384460,433.951935 553.159668,435.432983 
	C552.524780,435.059418 552.082031,434.885071 551.746643,434.589020 
	C542.619812,426.532745 529.535950,429.423187 525.274658,440.722626 
	C522.365173,448.437469 522.418945,456.412537 525.553162,464.113861 
	C527.528259,468.967133 531.071960,472.180969 536.419006,473.459930 
	C542.925537,475.016296 548.256348,472.927673 553.568115,467.898315 
	C553.568115,475.903168 553.568115,482.843384 553.568115,489.992737 
	C557.194397,489.992737 560.436401,489.992737 564.092590,489.992737 
	C564.092590,488.358948 564.092590,486.895233 564.092590,484.443665 
M974.434875,447.422546 
	C976.300781,441.108917 979.742920,438.365387 984.919128,439.066040 
	C989.442078,439.678284 990.908630,442.178497 990.922058,449.390289 
	C990.936523,457.170258 990.925354,464.950287 990.925354,472.879272 
	C994.606995,472.879272 997.851013,472.879272 1001.086121,472.879272 
	C1001.086121,462.213806 1001.472473,451.745239 1000.950989,441.322083 
	C1000.600281,434.313171 995.651917,429.759094 988.655884,430.266296 
	C983.763977,430.621002 979.026245,433.102081 974.026367,434.695038 
	C974.026367,428.536957 974.026367,421.338745 974.026367,414.213989 
	C970.282776,414.213989 967.048462,414.213989 963.737183,414.213989 
	C963.737183,433.932373 963.737183,453.353973 963.737183,472.859375 
	C967.236511,472.859375 970.489136,472.859375 974.222046,472.859375 
	C974.222046,464.506104 974.222046,456.384430 974.434875,447.422546 
M877.475403,436.859619 
	C875.316711,430.264496 873.157959,423.669373 871.072388,417.297729 
	C867.041382,417.297729 863.463684,417.297729 859.552368,417.297729 
	C860.014526,418.879181 860.338318,420.143127 860.751709,421.377106 
	C865.281128,434.898560 869.805542,448.421783 874.369873,461.931519 
	C878.257141,473.437317 878.279541,473.431641 890.585754,473.031982 
	C890.904541,473.021667 891.218201,472.855042 891.764099,472.693115 
	C897.926880,454.374695 904.131714,435.931274 910.445312,417.164520 
	C906.263123,417.164520 902.786987,417.164520 899.021729,417.164520 
	C894.575073,430.920471 890.117798,444.709137 885.660583,458.497833 
	C885.306580,458.527771 884.952576,458.557739 884.598572,458.587677 
	C882.330383,451.587463 880.062195,444.587250 877.475403,436.859619 
M1101.765137,456.695526 
	C1103.494751,467.055939 1109.110107,472.510406 1119.453857,473.877136 
	C1128.900024,475.125305 1135.951294,471.692810 1139.758057,463.746887 
	C1137.434082,462.311340 1135.077026,460.855469 1132.608276,459.330505 
	C1129.132690,464.350708 1124.657104,466.008606 1119.024658,464.363007 
	C1114.310059,462.985626 1112.738037,459.469635 1112.369995,454.254364 
	C1121.744507,454.254364 1130.921875,454.254364 1140.535034,454.254364 
	C1140.213745,449.716888 1140.415405,445.816223 1139.580444,442.151733 
	C1137.738770,434.069305 1131.025391,429.823059 1121.357666,430.026245 
	C1111.571289,430.231903 1104.005249,435.940338 1102.195557,444.992371 
	C1101.490967,448.516022 1101.754761,452.233215 1101.765137,456.695526 
M926.966370,458.553986 
	C926.711426,457.323669 926.456482,456.093353 926.078491,454.269043 
	C935.659424,454.269043 944.725342,454.269043 954.203613,454.269043 
	C954.203613,451.961334 954.230164,450.160065 954.199341,448.359772 
	C954.012573,437.466278 949.007446,431.472565 939.021912,430.162689 
	C928.161621,428.738129 918.353088,434.416779 916.357361,444.255310 
	C915.332825,449.305969 915.421082,454.879272 916.364746,459.964294 
	C917.865479,468.050812 924.568420,472.904297 933.711365,473.915039 
	C943.088562,474.951630 949.669250,471.721252 953.722717,463.817719 
	C951.401306,462.358673 949.046997,460.878937 946.731384,459.423523 
	C939.417664,466.956848 932.060120,466.894958 926.966370,458.553986 
M762.616028,454.352325 
	C770.245850,454.352325 777.875610,454.352325 785.845581,454.352325 
	C785.845581,451.042755 786.109924,448.215576 785.797424,445.453644 
	C784.736572,436.076355 779.201416,430.868988 769.761658,430.074738 
	C754.154663,428.761566 744.006226,441.242065 747.401978,457.572357 
	C750.326111,471.634277 766.049072,478.857483 778.509399,471.601715 
	C781.320251,469.964966 783.404724,467.080902 786.276550,464.338409 
	C782.935242,462.265869 780.618042,460.828522 778.272522,459.373657 
	C777.072021,460.690704 776.276428,461.765411 775.287415,462.615021 
	C769.770813,467.354095 760.750488,464.876221 758.455811,458.200836 
	C757.270325,454.752289 758.652527,454.023926 762.616028,454.352325 
M594.189697,464.940308 
	C587.885010,464.560486 586.320679,463.065247 586.240417,456.741913 
	C586.132935,448.273254 586.213806,439.802155 586.213806,431.122498 
	C582.665833,431.122498 579.394104,431.122498 575.793091,431.122498 
	C575.793091,441.006927 575.558960,450.798248 575.857361,460.573334 
	C576.171204,470.853271 583.704163,476.308472 593.583801,473.281097 
	C596.928833,472.256073 599.775085,469.603455 602.800964,467.724640 
	C602.888672,469.343781 602.983704,471.096893 603.080078,472.876526 
	C606.497192,472.876526 609.583008,472.876526 612.728027,472.876526 
	C612.728027,458.793091 612.728027,444.930511 612.728027,431.215942 
	C609.172424,431.215942 605.929321,431.215942 602.287354,431.215942 
	C602.287354,439.139984 602.357849,446.763245 602.262451,454.384399 
	C602.199219,459.436340 600.556946,463.550446 594.189697,464.940308 
M1044.653076,455.119781 
	C1044.807861,452.144592 1044.551880,449.076263 1045.201172,446.213196 
	C1046.645264,439.845184 1053.902466,436.898254 1059.385254,440.383759 
	C1061.103394,441.476013 1062.317871,443.360809 1063.910156,445.038025 
	C1066.334839,443.304169 1068.739868,441.584290 1071.083252,439.908478 
	C1067.371460,431.523193 1059.148071,428.281036 1048.689941,430.804382 
	C1038.418213,433.282837 1032.916748,441.493225 1033.534424,453.422607 
	C1034.151367,465.338531 1040.829346,472.777283 1051.944580,473.930054 
	C1061.883301,474.960876 1068.918945,470.657440 1071.683960,461.618134 
	C1069.181152,460.275269 1066.639404,458.911530 1063.872192,457.426849 
	C1061.684448,462.847626 1058.200073,465.580597 1052.841919,464.824188 
	C1047.874268,464.122894 1045.444336,460.793488 1044.653076,455.119781 
M354.907013,448.500000 
	C354.907013,456.586182 354.907013,464.672363 354.907013,472.768127 
	C367.287781,472.768127 379.005981,472.768127 390.739319,472.768127 
	C390.739319,469.716125 390.739319,466.988342 390.739319,463.756958 
	C382.365601,463.756958 374.302704,463.756958 365.854645,463.756958 
	C365.854645,448.006073 365.854645,432.765472 365.854645,417.348816 
	C362.057678,417.348816 358.675018,417.348816 354.906952,417.348816 
	C354.906952,427.597992 354.906952,437.549011 354.907013,448.500000 
M1089.819458,415.810944 
	C1086.413940,414.928680 1083.008423,414.046448 1079.086792,413.030487 
	C1079.086792,430.722870 1078.801636,446.990417 1079.199219,463.241211 
	C1079.419556,472.244019 1087.477783,476.420563 1096.224121,472.501312 
	C1096.024170,470.153229 1095.816406,467.713226 1095.563843,464.747314 
	C1089.767090,466.092255 1089.779907,462.510254 1089.798950,458.652100 
	C1089.867554,444.689178 1089.825317,430.725708 1089.819458,415.810944 
M1023.752136,459.488831 
	C1023.752136,450.076904 1023.752136,440.664978 1023.752136,431.081024 
	C1019.965576,431.081024 1016.712830,431.081024 1013.225159,431.081024 
	C1013.225159,445.067078 1013.225159,458.910889 1013.225159,472.737915 
	C1016.801941,472.737915 1020.154907,472.737915 1023.752136,472.737915 
	C1023.752136,468.409424 1023.752136,464.446655 1023.752136,459.488831 
M635.925964,435.636414 
	C635.925964,434.188446 635.925964,432.740479 635.925964,431.237488 
	C632.091064,431.237488 628.726746,431.237488 625.360596,431.237488 
	C625.360596,445.288544 625.360596,459.000031 625.360596,472.765625 
	C628.976379,472.765625 632.341553,472.765625 635.925964,472.765625 
	C635.925964,460.488464 635.925964,448.550507 635.925964,435.636414 
M626.248657,414.745209 
	C623.313110,417.701019 623.023621,420.992188 625.873413,423.947754 
	C628.327759,426.493134 631.581970,426.604614 634.483337,424.570404 
	C637.297058,422.597748 637.942871,419.649109 636.296143,416.683258 
	C634.269043,413.032288 630.988953,412.607025 627.313232,414.082031 
	C627.159668,414.143677 627.007080,414.208038 626.248657,414.745209 
M1015.467468,425.139282 
	C1020.720276,426.422729 1024.355469,424.552612 1024.894043,420.289856 
	C1025.340088,416.759796 1022.493469,413.116150 1018.785156,413.449280 
	C1016.641907,413.641815 1013.920166,414.994843 1012.749023,416.707794 
	C1010.764526,419.610046 1011.739014,422.711823 1015.467468,425.139282 
z"/>
<path fill="#343434" opacity="1.000000" stroke="none" 
	d="
M68.934204,272.867004 
	C78.275963,237.981644 87.542625,203.498596 96.815697,168.991699 
	C160.523224,168.991699 223.815430,168.991699 287.834839,168.991699 
	C285.577606,177.487457 283.375977,185.709091 281.211151,193.940399 
	C279.097412,201.977493 276.820526,209.979675 275.011627,218.085632 
	C274.076294,222.276947 272.446960,223.871811 267.798767,223.845383 
	C228.143860,223.619995 188.486694,223.800735 148.831467,223.604904 
	C144.101593,223.581543 142.080673,224.744232 140.822617,229.575012 
	C132.404617,261.898926 123.605583,294.123657 114.914932,326.376465 
	C114.614105,327.492889 114.152344,328.566010 113.738609,329.735596 
	C93.872673,329.735596 74.071411,329.735596 53.623455,329.735596 
	C58.756630,310.711029 63.807865,291.990173 68.934204,272.867004 
z"/>
<path fill="#333333" opacity="1.000000" stroke="none" 
	d="
M203.000183,55.568840 
	C247.449432,55.568771 291.398651,55.568771 336.085876,55.568771 
	C333.394226,65.455948 330.839783,74.816055 328.298981,84.179855 
	C326.341003,91.395691 324.127472,98.557770 322.563660,105.858566 
	C321.749115,109.661270 319.977905,110.403381 316.441498,110.395012 
	C270.633240,110.286499 224.824310,110.399460 179.016586,110.209816 
	C174.224319,110.189972 172.020584,111.345695 170.977615,116.263924 
	C169.085510,125.186195 166.395416,133.939240 164.012466,142.860001 
	C144.000687,142.860001 124.212601,142.860001 103.887093,142.860001 
	C107.027817,131.000809 110.084999,119.349915 113.201653,107.714958 
	C117.457787,91.826164 121.861130,75.975746 125.962189,60.047295 
	C126.871513,56.515499 128.396408,55.449341 132.039032,55.477169 
	C155.524948,55.656605 179.012894,55.568932 203.000183,55.568840 
z"/>
<path fill="#0ABFD9" opacity="1.000000" stroke="none" 
	d="
M647.013184,178.427063 
	C654.995361,178.527344 663.458862,176.485123 669.690613,179.330597 
	C675.909363,182.170120 679.956848,189.850586 684.842224,195.507187 
	C695.512207,207.861740 706.109009,220.279556 716.743713,232.664658 
	C716.955383,232.911179 717.265381,233.073242 718.006287,233.638336 
	C723.162476,227.654556 728.360962,221.649063 733.529419,215.617828 
	C743.176575,204.360291 752.698059,192.991592 762.551208,181.917664 
	C764.165955,180.102844 767.179504,178.659363 769.596191,178.581390 
	C780.536011,178.228394 791.493591,178.427017 803.813904,178.427017 
	C781.093994,204.921677 759.172119,230.485764 736.903015,256.454712 
	C758.850159,282.079651 780.744812,307.643311 803.313904,333.994385 
	C790.473389,333.994385 778.710144,334.115540 766.955627,333.851074 
	C765.369629,333.815430 763.515503,332.110840 762.312439,330.722443 
	C749.112976,315.489868 736.021667,300.163574 722.890381,284.871857 
	C721.283630,283.000793 719.614868,281.183075 717.711609,279.044952 
	C705.304260,293.547272 692.596008,307.236267 681.314392,322.014374 
	C674.281860,331.226440 666.730835,335.757233 655.037720,334.174561 
	C648.022217,333.225006 640.773315,334.000183 632.362244,334.000183 
	C654.761597,307.801575 676.528870,282.342224 698.648682,256.470612 
	C676.675598,230.713165 654.797485,205.066925 632.071472,178.426834 
	C637.674988,178.426834 642.095703,178.426834 647.013184,178.427063 
z"/>
<path fill="#0BC0DA" opacity="1.000000" stroke="none" 
	d="
M577.000000,334.003540 
	C557.009766,334.002838 537.519165,334.080475 518.029480,333.979248 
	C498.885773,333.879822 483.447540,322.108917 479.524261,304.611206 
	C478.730011,301.068878 478.365784,297.357880 478.356079,293.723175 
	C478.268036,260.739929 478.277954,227.756378 478.315826,194.772980 
	C478.328217,184.000153 483.834351,178.456970 494.660156,178.442795 
	C534.806580,178.390244 574.953125,178.418152 615.099670,178.431946 
	C616.397888,178.432388 617.696106,178.607605 619.334473,178.725922 
	C619.334473,188.001434 619.334473,197.057709 619.334473,206.605743 
	C582.027283,206.605743 544.800232,206.605743 506.960938,206.605743 
	C506.871979,208.640656 506.743286,210.221893 506.742584,211.803177 
	C506.730621,238.623047 506.721375,265.442932 506.741547,292.262787 
	C506.749390,302.718018 509.935760,305.855164 520.545898,305.861053 
	C551.530334,305.878265 582.514832,305.867859 613.499268,305.868256 
	C615.318237,305.868256 617.137207,305.868225 619.322754,305.868225 
	C619.322754,315.243591 619.322754,324.299835 619.322754,334.003540 
	C605.348938,334.003540 591.424500,334.003540 577.000000,334.003540 
z"/>
<path fill="#09BFD9" opacity="1.000000" stroke="none" 
	d="
M343.881622,292.989136 
	C343.881592,297.442108 343.881592,301.397034 343.881592,305.797485 
	C382.121185,305.797485 419.849121,305.797485 457.925720,305.797485 
	C457.925720,315.302399 457.925720,324.352936 457.925720,333.744324 
	C456.451416,333.830017 454.999939,333.987549 453.548431,333.988037 
	C412.911133,334.001282 372.273804,334.009033 331.636505,333.991577 
	C321.187042,333.987091 315.741333,328.763672 315.731262,318.531891 
	C315.686798,273.397888 315.708771,228.263809 315.718964,183.129745 
	C315.719269,181.830536 315.856720,180.531357 315.947052,178.934265 
	C325.261993,178.934265 334.302216,178.934265 343.881653,178.934265 
	C343.881653,216.966095 343.881653,254.728577 343.881622,292.989136 
z"/>
<path fill="#09BFD9" opacity="1.000000" stroke="none" 
	d="
M526.058838,242.020264 
	C553.153381,242.020279 579.757385,242.020279 606.651978,242.020279 
	C606.651978,251.494659 606.651978,260.561066 606.651978,269.994934 
	C577.199585,269.994934 547.852478,269.994934 518.220337,269.994934 
	C518.220337,260.814392 518.220337,251.734192 518.220337,242.020264 
	C520.699402,242.020264 523.133789,242.020264 526.058838,242.020264 
z"/>
<path fill="#0BB9D5" opacity="1.000000" stroke="none" 
	d="
M1073.876465,184.959686 
	C1101.866089,149.252411 1138.604492,141.584976 1180.188965,158.375336 
	C1154.739014,160.798462 1134.111938,171.160568 1115.236084,186.950958 
	C1112.704468,186.653351 1110.932983,186.100143 1109.144165,186.036545 
	C1097.390381,185.618668 1085.632812,185.306412 1073.876465,184.959686 
z"/>
<path fill="#0BB9D5" opacity="1.000000" stroke="none" 
	d="
M1039.022827,170.006744 
	C1059.328003,145.224426 1084.769531,132.075180 1117.436401,135.896622 
	C1125.933716,136.890671 1134.316528,138.863068 1142.761108,141.090485 
	C1117.246948,144.092911 1095.264038,153.986801 1076.323730,171.889679 
	C1074.494995,171.565659 1073.390015,171.079422 1072.269653,171.040314 
	C1061.188843,170.653397 1050.105469,170.340561 1039.022827,170.006744 
z"/>
<path fill="#0DC0DA" opacity="1.000000" stroke="none" 
	d="
M436.248230,420.582764 
	C441.590027,423.349365 445.467438,427.411835 446.266144,432.781860 
	C447.345734,440.040222 448.088501,447.663544 447.038574,454.847107 
	C445.602295,464.674194 438.694061,471.009857 428.856140,472.045898 
	C419.552673,473.025665 410.064972,472.256378 400.383728,472.256378 
	C400.383728,454.357025 400.383728,436.124115 400.383728,417.078125 
	C412.272766,417.671509 424.386688,414.966827 436.248230,420.582764 
M413.903687,426.308868 
	C412.999023,427.696167 411.365662,429.056183 411.312469,430.475403 
	C411.044678,437.618317 411.189240,444.776703 411.189087,451.929657 
	C411.189026,455.843140 411.189056,459.756653 411.189056,463.861969 
	C415.156708,463.861969 418.330505,464.099274 421.455627,463.810120 
	C427.096130,463.288300 432.230682,461.721191 434.973022,455.982056 
	C442.588013,440.045410 434.224030,426.356567 416.787964,426.298370 
	C416.122559,426.296173 415.457184,426.298737 413.903687,426.308868 
z"/>
<path fill="#080808" opacity="1.000000" stroke="none" 
	d="
M507.703491,448.590820 
	C501.609772,448.590790 495.982666,448.590790 490.106171,448.590790 
	C490.106171,453.694122 490.106171,458.470367 490.106171,463.820679 
	C498.712250,463.820679 507.423523,463.820679 516.322876,463.820679 
	C516.322876,467.147797 516.322876,469.903229 516.322876,472.881012 
	C503.834290,472.881012 491.570038,472.881012 479.013428,472.881012 
	C479.013428,454.462738 479.013428,436.066132 479.013428,417.350952 
	C491.165710,417.350952 503.349976,417.350952 515.747925,417.350952 
	C515.747925,420.237061 515.747925,423.008728 515.747925,426.159241 
	C507.285858,426.159241 498.847870,426.159241 490.133209,426.159241 
	C490.133209,430.620331 490.133209,434.711853 490.133209,439.403931 
	C497.497894,439.403931 504.868317,439.403931 512.457642,439.403931 
	C512.457642,442.604004 512.457642,445.214355 512.457642,448.295074 
	C511.032684,448.393341 509.601410,448.492096 507.703491,448.590820 
z"/>
<path fill="#0FC1DA" opacity="1.000000" stroke="none" 
	d="
M332.966553,426.436066 
	C327.830444,426.435730 323.188599,426.435730 318.207764,426.435730 
	C318.207764,430.731171 318.207764,434.646179 318.207764,439.163391 
	C325.410950,439.163391 332.632843,439.163391 340.288940,439.163391 
	C340.288940,442.458893 340.288940,445.175262 340.288940,448.409637 
	C333.164001,448.409637 325.905853,448.409637 318.260651,448.409637 
	C318.260651,453.641998 318.260651,458.389648 318.260651,463.664185 
	C326.661255,463.664185 335.236420,463.664185 344.215515,463.664185 
	C344.215515,466.884644 344.215515,469.597992 344.215515,472.711487 
	C331.899872,472.711487 319.524231,472.711487 306.879486,472.711487 
	C306.879486,454.310791 306.879486,435.898621 306.879486,417.259033 
	C319.171600,417.259033 331.252686,417.259033 343.647797,417.259033 
	C343.647797,420.163361 343.647797,422.913116 343.647797,426.436401 
	C340.292053,426.436401 336.876434,426.436401 332.966553,426.436066 
z"/>
<path fill="#040404" opacity="1.000000" stroke="none" 
	d="
M716.224365,473.099274 
	C713.801147,471.713348 711.768799,470.425446 709.159119,468.771729 
	C709.159119,472.695435 709.159180,476.115234 709.159180,479.535065 
	C709.159180,482.854919 709.159119,486.174774 709.159119,489.851807 
	C705.788086,489.851807 702.565186,489.851807 698.998535,489.851807 
	C698.998535,470.399048 698.998535,450.850067 698.998535,431.104645 
	C702.296265,431.104645 705.569153,431.104645 709.002625,431.104645 
	C709.099792,432.709015 709.187012,434.149109 709.301208,436.034302 
	C711.767944,434.273651 713.768555,432.248016 716.192261,431.222229 
	C725.265015,427.382233 735.752014,432.084290 737.758850,441.824921 
	C739.092346,448.297180 739.077026,455.484161 737.757507,461.962585 
	C735.831116,471.420074 726.875977,475.570435 716.224365,473.099274 
M711.250854,442.941132 
	C708.517578,448.074005 708.357239,453.455109 710.182495,458.820953 
	C711.620178,463.047577 714.879028,465.146057 719.383118,464.935760 
	C723.683594,464.734955 726.733887,462.486938 727.585205,458.299347 
	C728.234863,455.103546 728.234070,451.715759 728.085876,448.433075 
	C727.913757,444.617401 726.513000,441.295807 722.549805,439.790497 
	C718.388000,438.209717 714.757812,438.989655 711.250854,442.941132 
z"/>
<path fill="#060606" opacity="1.000000" stroke="none" 
	d="
M688.329956,457.258728 
	C687.500610,471.191956 672.149475,479.945587 658.880493,468.988708 
	C658.880493,476.019196 658.880493,482.758972 658.880493,489.855713 
	C655.120605,489.855713 651.725525,489.855713 648.152527,489.855713 
	C648.152527,470.425507 648.152527,450.976440 648.152527,431.215820 
	C651.417297,431.215820 654.664307,431.215820 658.294006,431.215820 
	C658.507812,432.579681 658.752197,434.138702 659.077881,436.216431 
	C663.456726,431.130096 668.783203,429.034180 675.125366,430.347900 
	C683.480774,432.078644 687.933594,438.296478 688.759521,449.384369 
	C688.943054,451.847626 688.554565,454.353546 688.329956,457.258728 
M676.145874,443.595337 
	C671.189514,437.117889 662.229553,437.402283 660.103455,444.644257 
	C658.749939,449.254608 659.187439,454.728119 660.113464,459.567444 
	C660.906860,463.714203 664.915588,465.234863 669.120300,464.899231 
	C673.159790,464.576813 676.408264,462.478394 676.823486,458.418488 
	C677.299255,453.766022 676.679565,449.001495 676.145874,443.595337 
z"/>
<path fill="#070707" opacity="1.000000" stroke="none" 
	d="
M819.068481,471.132263 
	C807.685059,477.401154 796.276672,472.500183 794.014404,460.259644 
	C793.099670,455.310791 793.216003,450.020660 793.757202,444.981873 
	C795.333313,430.307312 812.900085,425.140320 822.715820,435.575134 
	C822.715820,428.217865 822.715820,421.376648 822.715820,414.228271 
	C826.597473,414.228271 829.962524,414.228271 833.786011,414.228271 
	C833.786011,415.495819 833.786011,416.617798 833.786011,417.739777 
	C833.786011,436.012451 833.786011,454.285126 833.786011,472.828735 
	C830.151001,472.828735 826.894958,472.828735 823.211975,472.828735 
	C823.106750,471.388672 822.994446,469.852234 822.829590,467.596252 
	C821.395447,468.964691 820.383728,469.930054 819.068481,471.132263 
M819.310425,462.925079 
	C823.406250,457.967255 824.402405,449.356995 821.480957,443.848267 
	C819.661011,440.416626 816.685913,438.892487 812.896118,439.080231 
	C809.099976,439.268311 806.002441,440.959381 805.051819,444.771851 
	C804.264832,447.927612 803.884583,451.304962 804.034851,454.551239 
	C804.450928,463.537201 810.390991,467.007965 819.310425,462.925079 
z"/>
<path fill="#040404" opacity="1.000000" stroke="none" 
	d="
M564.092590,484.937592 
	C564.092590,486.895233 564.092590,488.358948 564.092590,489.992737 
	C560.436401,489.992737 557.194397,489.992737 553.568115,489.992737 
	C553.568115,482.843384 553.568115,475.903168 553.568115,467.898315 
	C548.256348,472.927673 542.925537,475.016296 536.419006,473.459930 
	C531.071960,472.180969 527.528259,468.967133 525.553162,464.113861 
	C522.418945,456.412537 522.365173,448.437469 525.274658,440.722626 
	C529.535950,429.423187 542.619812,426.532745 551.746643,434.589020 
	C552.082031,434.885071 552.524780,435.059418 553.159668,435.432983 
	C553.384460,433.951935 553.575012,432.696625 553.804565,431.184265 
	C557.096680,431.184265 560.333069,431.184265 564.092590,431.184265 
	C564.092590,448.941040 564.092590,466.692352 564.092590,484.937592 
M536.237671,442.916718 
	C535.822510,447.921448 534.832214,452.964539 535.162964,457.919464 
	C535.460449,462.375824 538.907959,464.772064 543.450867,464.931427 
	C548.198059,465.097961 551.615417,462.770782 552.666260,458.240417 
	C553.431274,454.942383 553.314941,451.360870 553.102417,447.936096 
	C552.861328,444.051880 550.976013,440.958466 547.057678,439.631805 
	C543.075012,438.283386 539.554321,439.056458 536.237671,442.916718 
z"/>
<path fill="#0AACCE" opacity="1.000000" stroke="none" 
	d="
M1073.580933,185.109436 
	C1085.632812,185.306412 1097.390381,185.618668 1109.144165,186.036545 
	C1110.932983,186.100143 1112.704468,186.653351 1114.925049,187.052551 
	C1105.810425,198.051178 1096.254395,208.977386 1086.303711,219.664948 
	C1084.298218,218.950867 1082.703491,218.132248 1081.074219,218.056412 
	C1071.372925,217.604828 1061.663696,217.324905 1051.957153,216.987335 
	C1059.066650,206.411285 1066.176025,195.835236 1073.580933,185.109436 
z"/>
<path fill="#040404" opacity="1.000000" stroke="none" 
	d="
M974.328491,447.842651 
	C974.222046,456.384430 974.222046,464.506104 974.222046,472.859375 
	C970.489136,472.859375 967.236511,472.859375 963.737183,472.859375 
	C963.737183,453.353973 963.737183,433.932373 963.737183,414.213989 
	C967.048462,414.213989 970.282776,414.213989 974.026367,414.213989 
	C974.026367,421.338745 974.026367,428.536957 974.026367,434.695038 
	C979.026245,433.102081 983.763977,430.621002 988.655884,430.266296 
	C995.651917,429.759094 1000.600281,434.313171 1000.950989,441.322083 
	C1001.472473,451.745239 1001.086121,462.213806 1001.086121,472.879272 
	C997.851013,472.879272 994.606995,472.879272 990.925354,472.879272 
	C990.925354,464.950287 990.936523,457.170258 990.922058,449.390289 
	C990.908630,442.178497 989.442078,439.678284 984.919128,439.066040 
	C979.742920,438.365387 976.300781,441.108917 974.328491,447.842651 
z"/>
<path fill="#060606" opacity="1.000000" stroke="none" 
	d="
M877.634705,437.223328 
	C880.062195,444.587250 882.330383,451.587463 884.598572,458.587677 
	C884.952576,458.557739 885.306580,458.527771 885.660583,458.497833 
	C890.117798,444.709137 894.575073,430.920471 899.021729,417.164520 
	C902.786987,417.164520 906.263123,417.164520 910.445312,417.164520 
	C904.131714,435.931274 897.926880,454.374695 891.764099,472.693115 
	C891.218201,472.855042 890.904541,473.021667 890.585754,473.031982 
	C878.279541,473.431641 878.257141,473.437317 874.369873,461.931519 
	C869.805542,448.421783 865.281128,434.898560 860.751709,421.377106 
	C860.338318,420.143127 860.014526,418.879181 859.552368,417.297729 
	C863.463684,417.297729 867.041382,417.297729 871.072388,417.297729 
	C873.157959,423.669373 875.316711,430.264496 877.634705,437.223328 
z"/>
<path fill="#0AACCE" opacity="1.000000" stroke="none" 
	d="
M1038.729736,170.167480 
	C1050.105469,170.340561 1061.188843,170.653397 1072.269653,171.040314 
	C1073.390015,171.079422 1074.494995,171.565659 1076.027466,172.016617 
	C1068.550415,182.363617 1060.652954,192.538391 1052.034058,202.870087 
	C1045.564331,202.684677 1039.815186,202.353546 1034.067871,201.996735 
	C1028.654663,201.660675 1023.243164,201.297592 1017.830933,200.946381 
	C1024.699585,190.740326 1031.568115,180.534271 1038.729736,170.167480 
z"/>
<path fill="#060606" opacity="1.000000" stroke="none" 
	d="
M1101.671387,456.278900 
	C1101.754761,452.233215 1101.490967,448.516022 1102.195557,444.992371 
	C1104.005249,435.940338 1111.571289,430.231903 1121.357666,430.026245 
	C1131.025391,429.823059 1137.738770,434.069305 1139.580444,442.151733 
	C1140.415405,445.816223 1140.213745,449.716888 1140.535034,454.254364 
	C1130.921875,454.254364 1121.744507,454.254364 1112.369995,454.254364 
	C1112.738037,459.469635 1114.310059,462.985626 1119.024658,464.363007 
	C1124.657104,466.008606 1129.132690,464.350708 1132.608276,459.330505 
	C1135.077026,460.855469 1137.434082,462.311340 1139.758057,463.746887 
	C1135.951294,471.692810 1128.900024,475.125305 1119.453857,473.877136 
	C1109.110107,472.510406 1103.494751,467.055939 1101.671387,456.278900 
M1129.991455,444.887634 
	C1128.099487,439.667084 1125.081543,437.568878 1120.501099,438.289642 
	C1115.885864,439.015839 1113.491089,441.876251 1113.057861,447.604462 
	C1118.195068,447.604462 1123.306641,447.663696 1128.412598,447.521820 
	C1128.984863,447.505920 1129.525513,446.350281 1129.991455,444.887634 
z"/>
<path fill="#060606" opacity="1.000000" stroke="none" 
	d="
M927.084229,458.989197 
	C932.060120,466.894958 939.417664,466.956848 946.731384,459.423523 
	C949.046997,460.878937 951.401306,462.358673 953.722717,463.817719 
	C949.669250,471.721252 943.088562,474.951630 933.711365,473.915039 
	C924.568420,472.904297 917.865479,468.050812 916.364746,459.964294 
	C915.421082,454.879272 915.332825,449.305969 916.357361,444.255310 
	C918.353088,434.416779 928.161621,428.738129 939.021912,430.162689 
	C949.007446,431.472565 954.012573,437.466278 954.199341,448.359772 
	C954.230164,450.160065 954.203613,451.961334 954.203613,454.269043 
	C944.725342,454.269043 935.659424,454.269043 926.078491,454.269043 
	C926.456482,456.093353 926.711426,457.323669 927.084229,458.989197 
M937.382324,447.622925 
	C939.498047,447.622925 941.613708,447.622925 943.731934,447.622925 
	C943.607666,440.995728 941.061279,438.155243 935.706177,438.196777 
	C930.466248,438.237457 927.250000,441.602966 926.995483,447.622925 
	C930.151428,447.622925 933.297058,447.622925 937.382324,447.622925 
z"/>
<path fill="#060606" opacity="1.000000" stroke="none" 
	d="
M762.135742,454.352356 
	C758.652527,454.023926 757.270325,454.752289 758.455811,458.200836 
	C760.750488,464.876221 769.770813,467.354095 775.287415,462.615021 
	C776.276428,461.765411 777.072021,460.690704 778.272522,459.373657 
	C780.618042,460.828522 782.935242,462.265869 786.276550,464.338409 
	C783.404724,467.080902 781.320251,469.964966 778.509399,471.601715 
	C766.049072,478.857483 750.326111,471.634277 747.401978,457.572357 
	C744.006226,441.242065 754.154663,428.761566 769.761658,430.074738 
	C779.201416,430.868988 784.736572,436.076355 785.797424,445.453644 
	C786.109924,448.215576 785.845581,451.042755 785.845581,454.352325 
	C777.875610,454.352325 770.245850,454.352325 762.135742,454.352356 
M773.770081,447.617950 
	C774.387512,446.770477 775.604919,445.859619 775.523254,445.085968 
	C775.055176,440.653046 771.846863,438.105408 767.273621,438.192688 
	C762.095459,438.291504 759.025391,441.509460 758.478882,447.624451 
	C763.301208,447.624451 768.104126,447.624451 773.770081,447.617950 
z"/>
<path fill="#040404" opacity="1.000000" stroke="none" 
	d="
M594.589600,464.898315 
	C600.556946,463.550446 602.199219,459.436340 602.262451,454.384399 
	C602.357849,446.763245 602.287354,439.139984 602.287354,431.215942 
	C605.929321,431.215942 609.172424,431.215942 612.728027,431.215942 
	C612.728027,444.930511 612.728027,458.793091 612.728027,472.876526 
	C609.583008,472.876526 606.497192,472.876526 603.080078,472.876526 
	C602.983704,471.096893 602.888672,469.343781 602.800964,467.724640 
	C599.775085,469.603455 596.928833,472.256073 593.583801,473.281097 
	C583.704163,476.308472 576.171204,470.853271 575.857361,460.573334 
	C575.558960,450.798248 575.793091,441.006927 575.793091,431.122498 
	C579.394104,431.122498 582.665833,431.122498 586.213806,431.122498 
	C586.213806,439.802155 586.132935,448.273254 586.240417,456.741913 
	C586.320679,463.065247 587.885010,464.560486 594.589600,464.898315 
z"/>
<path fill="#0B8DBE" opacity="1.000000" stroke="none" 
	d="
M1022.286011,258.106934 
	C1017.102173,267.969696 1011.918396,277.832428 1005.974121,287.859619 
	C996.505798,287.682373 987.793030,287.423767 979.095032,286.915009 
	C977.689941,286.832794 976.349976,285.637909 974.979919,284.957336 
	C979.710693,275.408203 984.441528,265.859070 989.878052,256.171204 
	C997.602417,256.355011 1004.625000,256.611420 1011.638184,257.027588 
	C1015.196350,257.238739 1018.737305,257.737946 1022.286011,258.106934 
z"/>
<path fill="#0BA1C8" opacity="1.000000" stroke="none" 
	d="
M1051.681152,217.188385 
	C1061.663696,217.324905 1071.372925,217.604828 1081.074219,218.056412 
	C1082.703491,218.132248 1084.298218,218.950867 1086.009766,219.840698 
	C1079.963623,229.774200 1073.816528,239.293304 1067.140503,248.691223 
	C1063.043335,248.046692 1059.490723,247.313217 1055.903564,247.045654 
	C1049.314941,246.554214 1042.705811,246.337234 1036.105225,246.005829 
	C1041.205078,236.467026 1046.305054,226.928223 1051.681152,217.188385 
z"/>
<path fill="#0BA1C8" opacity="1.000000" stroke="none" 
	d="
M1017.557678,201.141678 
	C1023.243164,201.297592 1028.654663,201.660675 1034.067871,201.996735 
	C1039.815186,202.353546 1045.564331,202.684677 1051.754639,203.048645 
	C1046.718750,212.713196 1041.240845,222.356110 1035.372803,231.795227 
	C1033.896973,231.062759 1032.830688,230.121948 1031.722778,230.070129 
	C1022.165710,229.623306 1012.601074,229.336716 1003.038696,229.002335 
	C1007.787231,219.780533 1012.535828,210.558762 1017.557678,201.141678 
z"/>
<path fill="#0B95C2" opacity="1.000000" stroke="none" 
	d="
M1035.863037,246.259476 
	C1042.705811,246.337234 1049.314941,246.554214 1055.903564,247.045654 
	C1059.490723,247.313217 1063.043335,248.046692 1066.857178,248.885986 
	C1061.630981,258.689545 1056.159058,268.177155 1049.971436,277.840424 
	C1041.512573,277.677307 1033.764404,277.424072 1026.030884,276.936157 
	C1024.230469,276.822571 1022.480530,275.910767 1020.707397,275.366272 
	C1025.678589,265.748535 1030.649780,256.130829 1035.863037,246.259476 
z"/>
<path fill="#0B8ABC" opacity="1.000000" stroke="none" 
	d="
M1020.442871,275.609680 
	C1022.480530,275.910767 1024.230469,276.822571 1026.030884,276.936157 
	C1033.764404,277.424072 1041.512573,277.677307 1049.692993,278.030945 
	C1044.250854,287.891663 1038.371338,297.737488 1031.838379,307.612793 
	C1023.604736,307.428131 1016.017029,307.345093 1008.449768,306.907227 
	C1006.570496,306.798523 1004.757629,305.541656 1002.914246,304.812561 
	C1008.668945,295.159393 1014.423706,285.506256 1020.442871,275.609680 
z"/>
<path fill="#0B98C3" opacity="1.000000" stroke="none" 
	d="
M1002.793335,229.246246 
	C1012.601074,229.336716 1022.165710,229.623306 1031.722778,230.070129 
	C1032.830688,230.121948 1033.896973,231.062759 1035.096680,232.019562 
	C1031.072266,240.850677 1026.933838,249.253662 1022.540649,257.881775 
	C1018.737305,257.737946 1015.196350,257.238739 1011.638184,257.027588 
	C1004.625000,256.611420 997.602417,256.355011 990.149841,255.960510 
	C993.993347,247.089050 998.270630,238.289581 1002.793335,229.246246 
z"/>
<path fill="#0C82B8" opacity="1.000000" stroke="none" 
	d="
M974.716248,285.172424 
	C976.349976,285.637909 977.689941,286.832794 979.095032,286.915009 
	C987.793030,287.423767 996.505798,287.682373 1005.692261,288.042175 
	C999.390930,297.400055 992.610962,306.739807 985.259399,315.882446 
	C974.703308,315.092468 964.718689,314.499603 954.734131,313.906708 
	C961.306946,304.400299 967.879761,294.893890 974.716248,285.172424 
z"/>
<path fill="#060606" opacity="1.000000" stroke="none" 
	d="
M1044.740112,455.550720 
	C1045.444336,460.793488 1047.874268,464.122894 1052.841919,464.824188 
	C1058.200073,465.580597 1061.684448,462.847626 1063.872192,457.426849 
	C1066.639404,458.911530 1069.181152,460.275269 1071.683960,461.618134 
	C1068.918945,470.657440 1061.883301,474.960876 1051.944580,473.930054 
	C1040.829346,472.777283 1034.151367,465.338531 1033.534424,453.422607 
	C1032.916748,441.493225 1038.418213,433.282837 1048.689941,430.804382 
	C1059.148071,428.281036 1067.371460,431.523193 1071.083252,439.908478 
	C1068.739868,441.584290 1066.334839,443.304169 1063.910156,445.038025 
	C1062.317871,443.360809 1061.103394,441.476013 1059.385254,440.383759 
	C1053.902466,436.898254 1046.645264,439.845184 1045.201172,446.213196 
	C1044.551880,449.076263 1044.807861,452.144592 1044.740112,455.550720 
z"/>
<path fill="#0E79B3" opacity="1.000000" stroke="none" 
	d="
M954.437988,314.042786 
	C964.718689,314.499603 974.703308,315.092468 984.958618,316.040009 
	C973.009644,328.960724 959.780151,339.940765 940.865051,338.625824 
	C933.938110,338.144287 927.162109,335.491150 920.343323,332.965759 
	C934.091797,330.619202 944.979370,323.968048 954.437988,314.042786 
z"/>
<path fill="#09BFD9" opacity="1.000000" stroke="none" 
	d="
M354.906982,448.000000 
	C354.906952,437.549011 354.906952,427.597992 354.906952,417.348816 
	C358.675018,417.348816 362.057678,417.348816 365.854645,417.348816 
	C365.854645,432.765472 365.854645,448.006073 365.854645,463.756958 
	C374.302704,463.756958 382.365601,463.756958 390.739319,463.756958 
	C390.739319,466.988342 390.739319,469.716125 390.739319,472.768127 
	C379.005981,472.768127 367.287781,472.768127 354.907013,472.768127 
	C354.907013,464.672363 354.907013,456.586182 354.906982,448.000000 
z"/>
<path fill="#0E79B3" opacity="1.000000" stroke="none" 
	d="
M1013.782410,331.929108 
	C994.732788,351.541565 975.992737,359.504578 948.462524,344.155853 
	C961.578308,342.382111 972.372192,336.677887 982.570801,328.854553 
	C986.427307,329.703613 989.741028,330.671631 993.109558,330.932983 
	C999.984924,331.466400 1006.889709,331.619385 1013.782410,331.929108 
z"/>
<path fill="#707070" opacity="1.000000" stroke="none" 
	d="
M872.578247,181.178909 
	C862.843140,172.278717 852.543945,164.335693 837.578674,162.018082 
	C856.674683,153.930054 873.235413,155.574295 888.507935,166.893311 
	C893.807434,170.821030 898.378784,175.731155 902.938904,180.551270 
	C896.797058,180.938278 890.998962,180.951324 885.201172,180.999924 
	C880.993286,181.035202 876.785889,181.117538 872.578247,181.178909 
z"/>
<path fill="#0D80B7" opacity="1.000000" stroke="none" 
	d="
M1014.079590,331.765778 
	C1006.889709,331.619385 999.984924,331.466400 993.109558,330.932983 
	C989.741028,330.671631 986.427307,329.703613 982.871094,328.674835 
	C989.215637,320.589020 995.777954,312.883789 1002.627197,304.995575 
	C1004.757629,305.541656 1006.570496,306.798523 1008.449768,306.907227 
	C1016.017029,307.345093 1023.604736,307.428131 1031.564209,307.808502 
	C1026.087891,315.850616 1020.232361,323.726532 1014.079590,331.765778 
z"/>
<path fill="#090909" opacity="1.000000" stroke="none" 
	d="
M1089.822266,416.286682 
	C1089.825317,430.725708 1089.867554,444.689178 1089.798950,458.652100 
	C1089.779907,462.510254 1089.767090,466.092255 1095.563843,464.747314 
	C1095.816406,467.713226 1096.024170,470.153229 1096.224121,472.501312 
	C1087.477783,476.420563 1079.419556,472.244019 1079.199219,463.241211 
	C1078.801636,446.990417 1079.086792,430.722870 1079.086792,413.030487 
	C1083.008423,414.046448 1086.413940,414.928680 1089.822266,416.286682 
z"/>
<path fill="#B6B6B6" opacity="1.000000" stroke="none" 
	d="
M924.256226,281.741486 
	C927.197632,288.561707 930.139099,295.381897 932.761414,302.726074 
	C923.231323,303.201172 914.020386,303.152252 904.809448,303.103302 
	C901.867554,296.663239 898.925598,290.223145 896.362610,283.351379 
	C901.127136,282.767822 905.513977,282.645050 909.897949,282.456146 
	C914.685425,282.249878 919.470276,281.982330 924.256226,281.741486 
z"/>
<path fill="#A9A9A9" opacity="1.000000" stroke="none" 
	d="
M924.180054,281.387909 
	C919.470276,281.982330 914.685425,282.249878 909.897949,282.456146 
	C905.513977,282.645050 901.127136,282.767822 896.318909,282.982605 
	C892.900757,276.635742 889.905212,270.226013 887.330017,263.424438 
	C895.213135,263.021698 902.677368,263.084442 910.137695,262.944061 
	C911.832825,262.912201 913.514771,262.176392 915.202759,261.764618 
	C918.169800,268.187866 921.136841,274.611084 924.180054,281.387909 
z"/>
<path fill="#C4C4C4" opacity="1.000000" stroke="none" 
	d="
M904.858276,303.473114 
	C914.020386,303.152252 923.231323,303.201172 932.859009,303.091187 
	C935.503906,307.882751 937.732117,312.833252 940.118713,318.135712 
	C933.064514,323.403625 925.445618,326.044342 916.964172,325.834869 
	C915.620361,325.801697 913.713501,324.287354 913.102722,322.975525 
	C910.175537,316.688934 907.604614,310.236450 904.858276,303.473114 
z"/>
<path fill="#9D9D9D" opacity="1.000000" stroke="none" 
	d="
M915.132935,261.412170 
	C913.514771,262.176392 911.832825,262.912201 910.137695,262.944061 
	C902.677368,263.084442 895.213135,263.021698 887.261963,263.062469 
	C884.133179,257.799591 881.492737,252.506805 879.072754,246.479324 
	C880.895752,245.496628 882.496338,245.050949 884.101379,245.034271 
	C891.748352,244.954803 899.396484,244.991928 907.044250,244.987595 
	C909.717163,250.344971 912.390137,255.702362 915.132935,261.412170 
z"/>
<path fill="#7A7A7A" opacity="1.000000" stroke="none" 
	d="
M872.727234,181.489807 
	C876.785889,181.117538 880.993286,181.035202 885.201172,180.999924 
	C890.998962,180.951324 896.797058,180.938278 903.110352,180.858261 
	C907.479492,185.618134 911.333374,190.429764 914.881958,195.626892 
	C912.654907,196.341248 910.736633,196.926758 908.810608,196.953659 
	C901.260620,197.059097 893.708130,196.988266 886.156616,196.982941 
	C881.729797,191.922195 877.302979,186.861450 872.727234,181.489807 
z"/>
<path fill="#8F8F8F" opacity="1.000000" stroke="none" 
	d="
M907.622681,230.718964 
	C904.362366,225.233887 901.101990,219.748825 898.045837,213.538284 
	C899.846436,212.541901 901.452637,211.993576 903.037537,212.049438 
	C908.996277,212.259430 914.946289,212.820633 920.903564,212.885681 
	C922.306396,212.900986 923.724670,211.492188 925.135864,210.738556 
	C928.475647,216.569214 931.815430,222.399857 934.767395,228.600067 
	C927.060608,228.979904 919.739136,228.890152 912.424744,229.078308 
	C910.811035,229.119827 909.222717,230.146133 907.622681,230.718964 
z"/>
<path fill="#707070" opacity="1.000000" stroke="none" 
	d="
M838.761047,185.096054 
	C831.536926,178.707870 824.443542,172.075317 813.792419,171.915955 
	C826.997375,163.105408 849.528931,168.060287 865.015503,183.577240 
	C862.862732,184.369232 860.948792,184.918335 859.024231,184.958389 
	C852.271790,185.098938 845.515747,185.064224 838.761047,185.096054 
z"/>
<path fill="#9A9A9A" opacity="1.000000" stroke="none" 
	d="
M907.706238,231.032913 
	C909.222717,230.146133 910.811035,229.119827 912.424744,229.078308 
	C919.739136,228.890152 927.060608,228.979904 934.882324,228.949356 
	C937.897949,233.709412 940.410828,238.489731 942.734009,243.924500 
	C940.823303,245.046875 939.092896,245.945450 937.382874,245.908279 
	C929.938293,245.746460 922.499573,245.312363 915.058777,244.977158 
	C912.635803,240.433731 910.212769,235.890289 907.706238,231.032913 
z"/>
<path fill="#848484" opacity="1.000000" stroke="none" 
	d="
M925.056152,210.410187 
	C923.724670,211.492188 922.306396,212.900986 920.903564,212.885681 
	C914.946289,212.820633 908.996277,212.259430 903.037537,212.049438 
	C901.452637,211.993576 899.846436,212.541901 898.006958,213.204529 
	C893.950745,208.273224 890.137512,202.950226 886.240479,197.305084 
	C893.708130,196.988266 901.260620,197.059097 908.810608,196.953659 
	C910.736633,196.926758 912.654907,196.341248 915.033752,195.949051 
	C918.652649,200.617752 921.814514,205.349792 925.056152,210.410187 
z"/>
<path fill="#090909" opacity="1.000000" stroke="none" 
	d="
M1023.752136,459.986359 
	C1023.752136,464.446655 1023.752136,468.409424 1023.752136,472.737915 
	C1020.154907,472.737915 1016.801941,472.737915 1013.225159,472.737915 
	C1013.225159,458.910889 1013.225159,445.067078 1013.225159,431.081024 
	C1016.712830,431.081024 1019.965576,431.081024 1023.752136,431.081024 
	C1023.752136,440.664978 1023.752136,450.076904 1023.752136,459.986359 
z"/>
<path fill="#090909" opacity="1.000000" stroke="none" 
	d="
M635.925964,436.124512 
	C635.925964,448.550507 635.925964,460.488464 635.925964,472.765625 
	C632.341553,472.765625 628.976379,472.765625 625.360596,472.765625 
	C625.360596,459.000031 625.360596,445.288544 625.360596,431.237488 
	C628.726746,431.237488 632.091064,431.237488 635.925964,431.237488 
	C635.925964,432.740479 635.925964,434.188446 635.925964,436.124512 
z"/>
<path fill="#B6B6B6" opacity="1.000000" stroke="none" 
	d="
M956.140686,272.842560 
	C958.432739,278.302216 960.724792,283.761871 962.513611,289.607788 
	C953.019470,289.658936 944.028564,289.323822 935.037659,288.988708 
	C932.993958,284.265259 930.950256,279.541809 929.353271,274.420044 
	C936.560974,274.013275 943.323975,274.091125 950.081970,273.943787 
	C952.108582,273.899597 954.121521,273.227173 956.140686,272.842560 
z"/>
<path fill="#A3A3A3" opacity="1.000000" stroke="none" 
	d="
M915.083496,245.332809 
	C922.499573,245.312363 929.938293,245.746460 937.382874,245.908279 
	C939.092896,245.945450 940.823303,245.046875 942.777344,244.282532 
	C945.276672,248.758514 947.542969,253.530869 949.543213,258.808105 
	C940.266907,259.534729 931.256653,259.756500 922.246399,259.978271 
	C919.867004,255.215012 917.487610,250.451736 915.083496,245.332809 
z"/>
<path fill="#A9A9A9" opacity="1.000000" stroke="none" 
	d="
M922.312500,260.318970 
	C931.256653,259.756500 940.266907,259.534729 949.666138,259.146271 
	C952.037415,263.363739 954.019775,267.747894 956.071411,272.487305 
	C954.121521,273.227173 952.108582,273.899597 950.081970,273.943787 
	C943.323975,274.091125 936.560974,274.013275 929.315796,274.047485 
	C926.680664,269.602081 924.529602,265.130890 922.312500,260.318970 
z"/>
<path fill="#939393" opacity="1.000000" stroke="none" 
	d="
M906.988525,244.634613 
	C899.396484,244.991928 891.748352,244.954803 884.101379,245.034271 
	C882.496338,245.050949 880.895752,245.496628 879.044067,246.131775 
	C876.007996,241.556366 873.221008,236.593826 870.798218,231.309082 
	C878.755676,231.324387 886.347351,231.798676 893.943726,231.893967 
	C895.638184,231.915222 897.349365,230.604904 899.052856,229.907684 
	C901.679504,234.699005 904.306152,239.490326 906.988525,244.634613 
z"/>
<path fill="#8B8B8B" opacity="1.000000" stroke="none" 
	d="
M898.990112,229.565918 
	C897.349365,230.604904 895.638184,231.915222 893.943726,231.893967 
	C886.347351,231.798676 878.755676,231.324387 870.723145,230.981628 
	C868.131592,227.259384 865.979309,223.542389 864.165833,219.436951 
	C870.663757,218.972916 876.825317,218.979065 882.980713,218.787079 
	C886.039490,218.691666 889.086914,218.232529 892.139465,217.937897 
	C894.402100,221.699982 896.664734,225.462082 898.990112,229.565918 
z"/>
<path fill="#C4C4C4" opacity="1.000000" stroke="none" 
	d="
M935.056885,289.356873 
	C944.028564,289.323822 953.019470,289.658936 962.470276,289.986267 
	C957.546570,298.058197 952.162903,306.137909 946.779297,314.217590 
	C946.190735,314.057465 945.602112,313.897339 945.013550,313.737213 
	C941.701050,305.733185 938.388550,297.729126 935.056885,289.356873 
z"/>
<path fill="#848484" opacity="1.000000" stroke="none" 
	d="
M892.054565,217.599915 
	C889.086914,218.232529 886.039490,218.691666 882.980713,218.787079 
	C876.825317,218.979065 870.663757,218.972916 864.048950,219.096481 
	C861.115723,215.320236 858.638245,211.496033 856.493774,207.282242 
	C858.759888,206.595520 860.688843,206.076813 862.626831,206.040756 
	C869.878235,205.905792 877.132629,205.928772 884.385864,205.892548 
	C886.913757,209.682327 889.441711,213.472107 892.054565,217.599915 
z"/>
<path fill="#747474" opacity="1.000000" stroke="none" 
	d="
M838.904602,185.405716 
	C845.515747,185.064224 852.271790,185.098938 859.024231,184.958389 
	C860.948792,184.918335 862.862732,184.369232 865.217224,183.868347 
	C868.712585,186.845901 871.772278,190.008667 874.862854,193.889465 
	C873.118286,195.071457 871.350098,195.899658 869.565979,195.935394 
	C862.412842,196.078644 855.254700,195.976196 848.098450,195.964600 
	C845.081665,192.548187 842.064941,189.131775 838.904602,185.405716 
z"/>
<path fill="#7A7A7A" opacity="1.000000" stroke="none" 
	d="
M848.190674,196.287216 
	C855.254700,195.976196 862.412842,196.078644 869.565979,195.935394 
	C871.350098,195.899658 873.118286,195.071457 874.993774,194.195343 
	C878.095581,197.604309 881.097290,201.425430 884.242432,205.569550 
	C877.132629,205.928772 869.878235,205.905792 862.626831,206.040756 
	C860.688843,206.076813 858.759888,206.595520 856.411255,206.947021 
	C853.424805,203.537537 850.853882,200.073685 848.190674,196.287216 
z"/>
<path fill="#090909" opacity="1.000000" stroke="none" 
	d="
M626.551392,414.508148 
	C627.007080,414.208038 627.159668,414.143677 627.313232,414.082031 
	C630.988953,412.607025 634.269043,413.032288 636.296143,416.683258 
	C637.942871,419.649109 637.297058,422.597748 634.483337,424.570404 
	C631.581970,426.604614 628.327759,426.493134 625.873413,423.947754 
	C623.023621,420.992188 623.313110,417.701019 626.551392,414.508148 
z"/>
<path fill="#090909" opacity="1.000000" stroke="none" 
	d="
M1015.094849,425.015778 
	C1011.739014,422.711823 1010.764526,419.610046 1012.749023,416.707794 
	C1013.920166,414.994843 1016.641907,413.641815 1018.785156,413.449280 
	C1022.493469,413.116150 1025.340088,416.759796 1024.894043,420.289856 
	C1024.355469,424.552612 1020.720276,426.422729 1015.094849,425.015778 
z"/>
<path fill="#F8FDFE" opacity="1.000000" stroke="none" 
	d="
M414.347717,426.303986 
	C415.457184,426.298737 416.122559,426.296173 416.787964,426.298370 
	C434.224030,426.356567 442.588013,440.045410 434.973022,455.982056 
	C432.230682,461.721191 427.096130,463.288300 421.455627,463.810120 
	C418.330505,464.099274 415.156708,463.861969 411.189056,463.861969 
	C411.189056,459.756653 411.189026,455.843140 411.189087,451.929657 
	C411.189240,444.776703 411.044678,437.618317 411.312469,430.475403 
	C411.365662,429.056183 412.999023,427.696167 414.347717,426.303986 
z"/>
<path fill="#F9F9F9" opacity="1.000000" stroke="none" 
	d="
M711.497925,442.638855 
	C714.757812,438.989655 718.388000,438.209717 722.549805,439.790497 
	C726.513000,441.295807 727.913757,444.617401 728.085876,448.433075 
	C728.234070,451.715759 728.234863,455.103546 727.585205,458.299347 
	C726.733887,462.486938 723.683594,464.734955 719.383118,464.935760 
	C714.879028,465.146057 711.620178,463.047577 710.182495,458.820953 
	C708.357239,453.455109 708.517578,448.074005 711.497925,442.638855 
z"/>
<path fill="#F9F9F9" opacity="1.000000" stroke="none" 
	d="
M676.340820,443.940491 
	C676.679565,449.001495 677.299255,453.766022 676.823486,458.418488 
	C676.408264,462.478394 673.159790,464.576813 669.120300,464.899231 
	C664.915588,465.234863 660.906860,463.714203 660.113464,459.567444 
	C659.187439,454.728119 658.749939,449.254608 660.103455,444.644257 
	C662.229553,437.402283 671.189514,437.117889 676.340820,443.940491 
z"/>
<path fill="#F9F9F9" opacity="1.000000" stroke="none" 
	d="
M818.994324,463.158447 
	C810.390991,467.007965 804.450928,463.537201 804.034851,454.551239 
	C803.884583,451.304962 804.264832,447.927612 805.051819,444.771851 
	C806.002441,440.959381 809.099976,439.268311 812.896118,439.080231 
	C816.685913,438.892487 819.661011,440.416626 821.480957,443.848267 
	C824.402405,449.356995 823.406250,457.967255 818.994324,463.158447 
z"/>
<path fill="#F9F9F9" opacity="1.000000" stroke="none" 
	d="
M536.476868,442.610168 
	C539.554321,439.056458 543.075012,438.283386 547.057678,439.631805 
	C550.976013,440.958466 552.861328,444.051880 553.102417,447.936096 
	C553.314941,451.360870 553.431274,454.942383 552.666260,458.240417 
	C551.615417,462.770782 548.198059,465.097961 543.450867,464.931427 
	C538.907959,464.772064 535.460449,462.375824 535.162964,457.919464 
	C534.832214,452.964539 535.822510,447.921448 536.476868,442.610168 
z"/>
<path fill="#E9E9E9" opacity="1.000000" stroke="none" 
	d="
M1130.036133,445.305420 
	C1129.525513,446.350281 1128.984863,447.505920 1128.412598,447.521820 
	C1123.306641,447.663696 1118.195068,447.604462 1113.057861,447.604462 
	C1113.491089,441.876251 1115.885864,439.015839 1120.501099,438.289642 
	C1125.081543,437.568878 1128.099487,439.667084 1130.036133,445.305420 
z"/>
<path fill="#E9E9E9" opacity="1.000000" stroke="none" 
	d="
M936.912537,447.622925 
	C933.297058,447.622925 930.151428,447.622925 926.995483,447.622925 
	C927.250000,441.602966 930.466248,438.237457 935.706177,438.196777 
	C941.061279,438.155243 943.607666,440.995728 943.731934,447.622925 
	C941.613708,447.622925 939.498047,447.622925 936.912537,447.622925 
z"/>
<path fill="#E9E9E9" opacity="1.000000" stroke="none" 
	d="
M773.338562,447.621216 
	C768.104126,447.624451 763.301208,447.624451 758.478882,447.624451 
	C759.025391,441.509460 762.095459,438.291504 767.273621,438.192688 
	C771.846863,438.105408 775.055176,440.653046 775.523254,445.085968 
	C775.604919,445.859619 774.387512,446.770477 773.338562,447.621216 
z"/>
</svg>