<svg width="180" height="52" viewBox="0 0 180 52" fill="none" xmlns="http://www.w3.org/2000/svg">
<rect width="180" height="52" rx="8" fill="#130F26"/>
<path d="M43.5694 25.8095C43.5333 21.8997 46.8528 19.9976 47.0046 19.909C45.1246 17.2366 42.2107 16.8715 41.1867 16.8424C38.7394 16.5912 36.3655 18.2702 35.1188 18.2702C33.8473 18.2702 31.9275 16.8666 29.8584 16.9079C27.1958 16.9479 24.705 18.4509 23.3389 20.7849C20.5195 25.5438 22.6222 32.5372 25.3233 36.3839C26.6745 38.2678 28.2534 40.3713 30.32 40.2973C32.3418 40.216 33.097 39.0406 35.5369 39.0406C37.9543 39.0406 38.6635 40.2973 40.7712 40.25C42.941 40.216 44.3072 38.3576 45.6111 36.4567C47.1725 34.2974 47.7996 32.1709 47.8245 32.0617C47.7735 32.0447 43.6104 30.4956 43.5694 25.8095Z" fill="white"/>
<path d="M39.588 14.3119C40.6754 12.986 41.4194 11.1821 41.2129 9.35156C39.639 9.4195 37.6707 10.413 36.5372 11.7098C35.5344 12.8525 34.6386 14.7255 34.87 16.4869C36.638 16.6155 38.4533 15.6171 39.588 14.3119Z" fill="white"/>
<path d="M72.7597 40.0287H69.9341L68.3864 35.2867H63.0065L61.5321 40.0287H58.7812L64.1114 23.885H67.4035L72.7597 40.0287ZM67.9198 33.2973L66.5201 29.0818C66.372 28.6512 66.0946 27.637 65.6852 26.0406H65.6355C65.4725 26.7272 65.21 27.7414 64.8492 29.0818L63.4743 33.2973H67.9198Z" fill="white"/>
<path d="M86.4669 34.0652C86.4669 36.0449 85.9182 37.6098 84.8209 38.7586C83.8379 39.7812 82.6174 40.292 81.1605 40.292C79.5878 40.292 78.4581 39.7412 77.77 38.6397H77.7203V44.7719H75.0677V32.2201C75.0677 30.9755 75.0341 29.6981 74.9694 28.388H77.3022L77.4503 30.2331H77.5001C78.3847 28.8429 79.7271 28.149 81.5287 28.149C82.9372 28.149 84.1129 28.6912 85.0535 29.7769C85.9966 30.8639 86.4669 32.2929 86.4669 34.0652ZM83.7645 34.1598C83.7645 33.0268 83.5033 32.0927 82.9782 31.3576C82.4046 30.5909 81.6345 30.2076 80.669 30.2076C80.0146 30.2076 79.4198 30.4211 78.8886 30.842C78.3561 31.2666 78.0077 31.821 77.8447 32.5076C77.7626 32.8278 77.7215 33.0899 77.7215 33.2961V35.237C77.7215 36.0838 77.9878 36.7983 78.5203 37.3818C79.0528 37.9653 79.7446 38.2564 80.5956 38.2564C81.5947 38.2564 82.3723 37.8803 82.9284 37.1307C83.4858 36.3798 83.7645 35.3899 83.7645 34.1598Z" fill="white"/>
<path d="M100.199 34.0652C100.199 36.0449 99.6503 37.6098 98.5517 38.7586C97.5701 39.7812 96.3495 40.292 94.8926 40.292C93.3199 40.292 92.1902 39.7412 91.5034 38.6397H91.4536V44.7719H88.801V32.2201C88.801 30.9755 88.7674 29.6981 88.7027 28.388H91.0356L91.1837 30.2331H91.2334C92.1168 28.8429 93.4593 28.149 95.2621 28.149C96.6693 28.149 97.845 28.6912 98.7881 29.7769C99.7275 30.8639 100.199 32.2929 100.199 34.0652ZM97.4967 34.1598C97.4967 33.0268 97.2341 32.0927 96.7091 31.3576C96.1355 30.5909 95.3679 30.2076 94.4011 30.2076C93.7454 30.2076 93.152 30.4211 92.6194 30.842C92.0869 31.2666 91.7398 31.821 91.5768 32.5076C91.4959 32.8278 91.4536 33.0899 91.4536 33.2961V35.237C91.4536 36.0838 91.7199 36.7983 92.2499 37.3818C92.7824 37.964 93.4742 38.2564 94.3277 38.2564C95.3268 38.2564 96.1044 37.8803 96.6606 37.1307C97.218 36.3798 97.4967 35.3899 97.4967 34.1598Z" fill="white"/>
<path d="M115.552 35.5015C115.552 36.8747 115.063 37.9919 114.082 38.8544C113.003 39.797 111.501 40.2677 109.572 40.2677C107.79 40.2677 106.361 39.9329 105.28 39.262L105.895 37.1064C107.059 37.793 108.337 38.1375 109.73 38.1375C110.729 38.1375 111.506 37.9167 112.065 37.4776C112.621 37.0385 112.898 36.4489 112.898 35.7138C112.898 35.0587 112.67 34.5068 112.21 34.0591C111.754 33.6115 110.991 33.1954 109.926 32.8109C107.027 31.7567 105.579 30.2124 105.579 28.1817C105.579 26.8546 106.087 25.7665 107.103 24.9197C108.116 24.0718 109.467 23.6484 111.157 23.6484C112.663 23.6484 113.915 23.9044 114.914 24.4151L114.251 26.5234C113.318 26.0285 112.263 25.781 111.082 25.781C110.149 25.781 109.42 26.0055 108.897 26.4519C108.455 26.851 108.234 27.3374 108.234 27.9136C108.234 28.5517 108.487 29.0794 108.994 29.4943C109.436 29.8776 110.238 30.2925 111.403 30.7401C112.828 31.2994 113.874 31.9532 114.547 32.7029C115.218 33.4502 115.552 34.3854 115.552 35.5015Z" fill="white"/>
<path d="M124.323 30.3289H121.399V35.9806C121.399 37.4181 121.914 38.1363 122.947 38.1363C123.421 38.1363 123.814 38.0962 124.125 38.0162L124.198 39.9802C123.676 40.1706 122.988 40.2665 122.135 40.2665C121.088 40.2665 120.269 39.9547 119.678 39.3324C119.09 38.7089 118.793 37.6632 118.793 36.1941V30.3264H117.052V28.3855H118.793V26.2541L121.399 25.4875V28.3855H124.323V30.3289Z" fill="white"/>
<path d="M137.515 34.1125C137.515 35.9018 136.99 37.3708 135.942 38.5196C134.843 39.7024 133.385 40.2919 131.567 40.2919C129.816 40.2919 128.421 39.7254 127.381 38.5924C126.341 37.4594 125.821 36.0292 125.821 34.3054C125.821 32.5015 126.356 31.024 127.429 29.8752C128.501 28.7252 129.946 28.1502 131.764 28.1502C133.516 28.1502 134.926 28.7167 135.989 29.8509C137.007 30.9512 137.515 32.3717 137.515 34.1125ZM134.763 34.1962C134.763 33.1226 134.527 32.2019 134.051 31.434C133.495 30.5048 132.7 30.0414 131.67 30.0414C130.603 30.0414 129.793 30.506 129.237 31.434C128.761 32.2031 128.525 33.1384 128.525 34.2447C128.525 35.3183 128.761 36.239 129.237 37.0057C129.811 37.9349 130.612 38.3983 131.646 38.3983C132.659 38.3983 133.454 37.9252 134.027 36.9814C134.516 36.199 134.763 35.2686 134.763 34.1962Z" fill="white"/>
<path d="M146.137 30.6625C145.874 30.6152 145.594 30.5909 145.301 30.5909C144.368 30.5909 143.646 30.9342 143.138 31.622C142.697 32.2286 142.475 32.9953 142.475 33.9208V40.0287H139.824L139.849 32.0539C139.849 30.7122 139.815 29.4907 139.749 28.3892H142.06L142.157 30.6164H142.23C142.51 29.8509 142.952 29.2347 143.556 28.7725C144.147 28.3564 144.786 28.149 145.474 28.149C145.719 28.149 145.94 28.166 146.137 28.1963V30.6625Z" fill="white"/>
<path d="M158 33.6576C158 34.121 157.969 34.5116 157.903 34.8306H149.945C149.977 35.9806 150.361 36.8601 151.1 37.4667C151.771 38.0089 152.638 38.2806 153.703 38.2806C154.881 38.2806 155.956 38.0975 156.923 37.7299L157.338 39.5253C156.209 40.0056 154.875 40.2446 153.336 40.2446C151.484 40.2446 150.031 39.7133 148.974 38.6518C147.919 37.5904 147.39 36.165 147.39 34.3769C147.39 32.6216 147.881 31.1598 148.865 29.9941C149.896 28.7494 151.288 28.1271 153.04 28.1271C154.76 28.1271 156.063 28.7494 156.948 29.9941C157.648 30.9827 158 32.2055 158 33.6576ZM155.471 32.9867C155.488 32.2201 155.315 31.5577 154.956 30.9985C154.497 30.2791 153.791 29.9201 152.842 29.9201C151.975 29.9201 151.269 30.2707 150.73 30.9742C150.289 31.5335 150.026 32.2043 149.945 32.9855H155.471V32.9867Z" fill="white"/>
<path d="M67.0456 13.9505C67.0456 15.3783 66.6065 16.4531 65.7293 17.1749C64.9168 17.8409 63.7622 18.1745 62.2667 18.1745C61.5252 18.1745 60.8906 18.1429 60.3594 18.0798V10.2785C61.0524 10.1693 61.7989 10.1135 62.6051 10.1135C64.0297 10.1135 65.1035 10.4156 65.8276 11.0197C66.6388 11.7027 67.0456 12.6792 67.0456 13.9505ZM65.6708 13.9857C65.6708 13.0601 65.4195 12.3504 64.9168 11.8555C64.4142 11.3618 63.6801 11.1143 62.7134 11.1143C62.3028 11.1143 61.9532 11.141 61.6633 11.1968V17.1276C61.8238 17.1518 62.1174 17.1627 62.5442 17.1627C63.542 17.1627 64.3122 16.8922 64.8546 16.3512C65.3971 15.8102 65.6708 15.0217 65.6708 13.9857Z" fill="white"/>
<path d="M74.3353 15.1975C74.3353 16.077 74.0778 16.7976 73.5627 17.3629C73.0227 17.944 72.3073 18.2339 71.414 18.2339C70.553 18.2339 69.8675 17.9561 69.3561 17.3981C68.846 16.8413 68.5909 16.1389 68.5909 15.2922C68.5909 14.4066 68.8534 13.68 69.381 13.1159C69.9085 12.5518 70.6177 12.2692 71.511 12.2692C72.372 12.2692 73.0638 12.547 73.5876 13.1038C74.0853 13.6448 74.3353 14.3435 74.3353 15.1975ZM72.9829 15.2388C72.9829 14.7111 72.866 14.2586 72.6333 13.8814C72.3596 13.4252 71.9701 13.1972 71.4638 13.1972C70.94 13.1972 70.5418 13.4252 70.2681 13.8814C70.0342 14.2586 69.9185 14.7184 69.9185 15.2618C69.9185 15.7895 70.0354 16.242 70.2681 16.6193C70.5505 17.0754 70.9437 17.3035 71.4513 17.3035C71.949 17.3035 72.3397 17.0718 72.6209 16.6072C72.8622 16.2226 72.9829 15.7665 72.9829 15.2388Z" fill="white"/>
<path d="M84.1097 12.3856L82.2745 18.1041H81.0801L80.3199 15.6209C80.127 15.001 79.9703 14.3848 79.8483 13.7734H79.8247C79.7115 14.4018 79.5547 15.0168 79.3532 15.6209L78.5457 18.1041H77.3376L75.6119 12.3856H76.9519L77.615 15.1041C77.7755 15.7471 77.9074 16.3597 78.0132 16.9395H78.0368C78.1338 16.4616 78.2943 15.8526 78.5208 15.1163L79.3532 12.3868H80.4157L81.2132 15.058C81.4061 15.7095 81.5628 16.3366 81.6835 16.9407H81.7196C81.8079 16.3524 81.9411 15.7252 82.1177 15.058L82.8294 12.3868H84.1097V12.3856Z" fill="white"/>
<path d="M90.8693 18.1041H89.5654V14.8288C89.5654 13.8195 89.1723 13.3149 88.3835 13.3149C87.9965 13.3149 87.6842 13.4531 87.4416 13.7309C87.2015 14.0087 87.0796 14.3363 87.0796 14.7111V18.1029H85.7757V14.0197C85.7757 13.5174 85.7595 12.9728 85.7284 12.3832H86.8743L86.9352 13.2772H86.9713C87.1231 12.9995 87.3496 12.7702 87.6469 12.587C88.0003 12.3735 88.3959 12.2655 88.8289 12.2655C89.3763 12.2655 89.8317 12.4378 90.1938 12.7835C90.6442 13.2069 90.8693 13.8389 90.8693 14.6784V18.1041Z" fill="white"/>
<path d="M94.4651 18.1041H93.1624V9.76172H94.4651V18.1041Z" fill="white"/>
<path d="M102.142 15.1975C102.142 16.077 101.884 16.7976 101.369 17.3629C100.829 17.944 100.112 18.2339 99.2204 18.2339C98.3581 18.2339 97.6726 17.9561 97.1625 17.3981C96.6523 16.8413 96.3973 16.1389 96.3973 15.2922C96.3973 14.4066 96.6598 13.68 97.1874 13.1159C97.7149 12.5518 98.4241 12.2692 99.3162 12.2692C100.178 12.2692 100.869 12.547 101.394 13.1038C101.892 13.6448 102.142 14.3435 102.142 15.1975ZM100.788 15.2388C100.788 14.7111 100.671 14.2586 100.438 13.8814C100.166 13.4252 99.7753 13.1972 99.2701 13.1972C98.7451 13.1972 98.3469 13.4252 98.0745 13.8814C97.8406 14.2586 97.7248 14.7184 97.7248 15.2618C97.7248 15.7895 97.8418 16.242 98.0745 16.6193C98.3569 17.0754 98.7501 17.3035 99.2577 17.3035C99.7554 17.3035 100.145 17.0718 100.426 16.6072C100.669 16.2226 100.788 15.7665 100.788 15.2388Z" fill="white"/>
<path d="M108.452 18.1041H107.281L107.184 17.4454H107.148C106.748 17.9707 106.177 18.2339 105.435 18.2339C104.881 18.2339 104.434 18.0604 104.096 17.7159C103.79 17.4029 103.637 17.0135 103.637 16.5513C103.637 15.8526 103.936 15.3201 104.537 14.9513C105.136 14.5825 105.98 14.4018 107.066 14.4103V14.3035C107.066 13.5502 106.661 13.1741 105.848 13.1741C105.27 13.1741 104.759 13.3161 104.319 13.5975L104.054 12.7629C104.599 12.4341 105.272 12.2692 106.066 12.2692C107.599 12.2692 108.368 13.0577 108.368 14.6347V16.7406C108.368 17.312 108.396 17.7669 108.452 18.1041ZM107.099 16.1389V15.257C105.66 15.2327 104.941 15.6173 104.941 16.4094C104.941 16.7078 105.023 16.931 105.191 17.0803C105.359 17.2295 105.573 17.3035 105.828 17.3035C106.114 17.3035 106.382 17.2149 106.626 17.039C106.871 16.8619 107.021 16.6375 107.077 16.3621C107.091 16.3002 107.099 16.225 107.099 16.1389Z" fill="white"/>
<path d="M115.861 18.1041H114.704L114.643 17.1858H114.607C114.238 17.8845 113.608 18.2339 112.724 18.2339C112.017 18.2339 111.428 17.9634 110.962 17.4223C110.495 16.8813 110.263 16.1789 110.263 15.3164C110.263 14.3908 110.515 13.6412 111.023 13.0686C111.514 12.5348 112.116 12.2679 112.833 12.2679C113.621 12.2679 114.172 12.5263 114.485 13.0443H114.51V9.76172H115.815V16.5635C115.815 17.1203 115.83 17.6334 115.861 18.1041ZM114.51 15.6925V14.739C114.51 14.574 114.498 14.4406 114.474 14.3387C114.401 14.033 114.243 13.7758 114.003 13.5684C113.76 13.3609 113.468 13.2566 113.13 13.2566C112.644 13.2566 112.263 13.4446 111.983 13.8219C111.706 14.1992 111.565 14.6808 111.565 15.2691C111.565 15.8344 111.698 16.293 111.966 16.646C112.248 17.022 112.629 17.2101 113.105 17.2101C113.533 17.2101 113.876 17.0536 114.136 16.7394C114.387 16.4494 114.51 16.1001 114.51 15.6925Z" fill="white"/>
<path d="M127.013 15.1975C127.013 16.077 126.755 16.7976 126.24 17.3629C125.7 17.944 124.986 18.2339 124.092 18.2339C123.232 18.2339 122.546 17.9561 122.034 17.3981C121.524 16.8413 121.269 16.1389 121.269 15.2922C121.269 14.4066 121.531 13.68 122.059 13.1159C122.586 12.5518 123.295 12.2692 124.19 12.2692C125.05 12.2692 125.743 12.547 126.265 13.1038C126.763 13.6448 127.013 14.3435 127.013 15.1975ZM125.662 15.2388C125.662 14.7111 125.545 14.2586 125.312 13.8814C125.037 13.4252 124.649 13.1972 124.141 13.1972C123.619 13.1972 123.221 13.4252 122.946 13.8814C122.712 14.2586 122.596 14.7184 122.596 15.2618C122.596 15.7895 122.713 16.242 122.946 16.6193C123.228 17.0754 123.621 17.3035 124.129 17.3035C124.627 17.3035 125.019 17.0718 125.3 16.6072C125.54 16.2226 125.662 15.7665 125.662 15.2388Z" fill="white"/>
<path d="M134.024 18.1041H132.721V14.8288C132.721 13.8195 132.328 13.3149 131.538 13.3149C131.151 13.3149 130.839 13.4531 130.598 13.7309C130.356 14.0087 130.235 14.3363 130.235 14.7111V18.1029H128.93V14.0197C128.93 13.5174 128.915 12.9728 128.884 12.3832H130.029L130.09 13.2772H130.126C130.279 12.9995 130.505 12.7702 130.802 12.587C131.156 12.3735 131.551 12.2655 131.985 12.2655C132.531 12.2655 132.986 12.4378 133.348 12.7835C133.8 13.2069 134.024 13.8389 134.024 14.6784V18.1041Z" fill="white"/>
<path d="M142.799 13.3379H141.364V16.1159C141.364 16.8219 141.619 17.1749 142.124 17.1749C142.358 17.1749 142.552 17.1555 142.705 17.1154L142.738 18.0798C142.481 18.1745 142.142 18.2218 141.726 18.2218C141.21 18.2218 140.81 18.0689 140.52 17.7632C140.229 17.4575 140.084 16.9432 140.084 16.2214V13.3379H139.227V12.3856H140.084V11.3375L141.362 10.9615V12.3844H142.798V13.3379H142.799Z" fill="white"/>
<path d="M149.702 18.1041H148.397V14.853C148.397 13.828 148.004 13.3148 147.216 13.3148C146.611 13.3148 146.198 13.612 145.972 14.2065C145.933 14.3314 145.911 14.4843 145.911 14.6638V18.1029H144.608V9.76172H145.911V13.2081H145.936C146.346 12.5809 146.935 12.2679 147.698 12.2679C148.238 12.2679 148.684 12.4402 149.039 12.7859C149.481 13.2166 149.702 13.8571 149.702 14.7038V18.1041Z" fill="white"/>
<path d="M156.823 14.9743C156.823 15.2024 156.805 15.3941 156.774 15.5505H152.864C152.881 16.1158 153.068 16.5465 153.43 16.8449C153.761 17.1118 154.187 17.2452 154.71 17.2452C155.288 17.2452 155.816 17.1555 156.291 16.9747L156.495 17.8578C155.939 18.0932 155.285 18.2108 154.527 18.2108C153.619 18.2108 152.903 17.95 152.386 17.4284C151.866 16.9068 151.608 16.2068 151.608 15.3286C151.608 14.4661 151.848 13.7479 152.332 13.1753C152.837 12.5639 153.52 12.2582 154.383 12.2582C155.226 12.2582 155.867 12.5639 156.3 13.1753C156.65 13.6606 156.823 14.261 156.823 14.9743ZM155.578 14.6456C155.588 14.2683 155.502 13.9432 155.326 13.6691C155.099 13.3161 154.755 13.1389 154.288 13.1389C153.863 13.1389 153.515 13.3112 153.25 13.6569C153.034 13.9323 152.906 14.261 152.864 14.6456H155.578Z" fill="white"/>
</svg>
