<svg width="25" height="24" viewBox="0 0 25 24" fill="none" xmlns="http://www.w3.org/2000/svg">
<path fill-rule="evenodd" clip-rule="evenodd" d="M2.18359 12C2.18359 6.47715 6.66074 2 12.1836 2C17.7064 2 22.1836 6.47715 22.1836 12C22.1836 17.5228 17.7064 22 12.1836 22C6.66074 22 2.18359 17.5228 2.18359 12ZM13.1836 8C13.1836 7.44772 12.7359 7 12.1836 7C11.6313 7 11.1836 7.44772 11.1836 8V11H8.18359C7.63131 11 7.18359 11.4477 7.18359 12C7.18359 12.5523 7.63131 13 8.18359 13H11.1836V16C11.1836 16.5523 11.6313 17 12.1836 17C12.7359 17 13.1836 16.5523 13.1836 16V13H16.1836C16.7359 13 17.1836 12.5523 17.1836 12C17.1836 11.4477 16.7359 11 16.1836 11H13.1836V8Z" fill="#BCBEC2"/>
</svg>
