<svg width="36" height="36" viewBox="0 0 36 36" fill="none" xmlns="http://www.w3.org/2000/svg">
<g clip-path="url(#clip0_8499_212)">
<g opacity="0.06">
<rect x="0.00390625" width="36" height="36" rx="4" fill="#4E4F51"/>
</g>
<path fill-rule="evenodd" clip-rule="evenodd" d="M22.7454 25.8283C23.8482 26.3174 24.2617 25.2926 24.2617 25.2926L27.1793 10.4329C27.1563 9.43133 25.8239 10.0369 25.8239 10.0369L9.48991 16.5351C9.48991 16.5351 8.70882 16.8146 8.77774 17.3037C8.84666 17.7929 9.46694 18.0258 9.46694 18.0258L13.5791 19.4232C13.5791 19.4232 14.8197 23.5458 15.0724 24.3377C15.3021 25.1063 15.5089 25.1296 15.5089 25.1296C15.7386 25.2227 15.9454 25.0597 15.9454 25.0597L18.6103 22.6141L22.7454 25.8283ZM23.457 13.0646C23.457 13.0646 24.0313 12.7153 24.0083 13.0646C24.0083 13.0646 24.1002 13.1112 23.8016 13.4373C23.5259 13.7168 17.0245 19.6327 16.1515 20.4246C16.0826 20.4712 16.0366 20.5411 16.0366 20.6343L15.7839 22.8236C15.738 23.0565 15.4393 23.0798 15.3704 22.8702L14.2907 19.2834C14.2447 19.1436 14.2907 18.9806 14.4285 18.8874L23.457 13.0646Z" fill="#4E4F51"/>
</g>
<defs>
<clipPath id="clip0_8499_212">
<rect width="36" height="36" fill="white"/>
</clipPath>
</defs>
</svg>
